# This file uses centimeters as units for non-parametric coordinates.

mtllib tower_side_platform.mtl
g default
v -4.000000 -1.000000 1.699123
v 4.000000 -1.000000 1.699123
v -4.000000 -1.000000 -1.699123
v 4.000000 -1.000000 -1.699123
v -4.000000 0.166667 1.699123
v -4.000000 0.166667 -1.699123
v 4.000000 0.166667 -1.699123
v 4.000000 0.166667 1.699123
v -3.800000 -0.666667 1.585848
v -3.800000 -0.666667 -1.585848
v -3.800000 0.166667 1.585848
v -3.800000 0.166667 -1.585848
v 3.800000 0.166667 -1.585848
v 3.800000 -0.666667 -1.585848
v 3.800000 -0.666667 1.585848
v 3.800000 0.166667 1.585848
v -3.933340 0.500000 1.661368
v -4.000000 0.433340 1.699123
v 3.933340 0.500000 1.661368
v 4.000000 0.433340 1.699123
v -3.933340 0.500000 -1.661368
v -4.000000 0.433340 -1.699123
v 3.933340 0.500000 -1.661368
v 4.000000 0.433340 -1.699123
v -4.000000 -0.733327 1.699123
v -3.933340 -0.666667 1.661368
v -4.000000 -0.733327 -1.699123
v -3.933340 -0.666667 -1.661368
v 4.000000 -0.733327 -1.699123
v 3.933340 -0.666667 -1.661368
v 4.000000 -0.733327 1.699123
v 3.933340 -0.666667 1.661368
vt 0.642662 0.629019
vt 0.484051 0.629019
vt 0.484051 0.561644
vt 0.642662 0.561644
vt 0.479246 0.366908
vt 0.597701 0.366908
vt 0.597701 0.398031
vt 0.479246 0.398031
vt 1.000000 0.398030
vt 1.000000 0.366907
vt 0.881544 0.366907
vt 0.881544 0.398030
vt 0.005907 0.540889
vt 0.005907 0.641259
vt 0.000000 0.637913
vt 0.000000 0.544234
vt 0.259579 0.641259
vt 0.259579 0.540889
vt 0.265486 0.544234
vt 0.265486 0.637913
vt 0.250887 0.531864
vt 0.014599 0.531865
vt 0.020506 0.528519
vt 0.244980 0.528519
vt 0.016568 0.542004
vt 0.013784 0.540889
vt 0.250887 0.539741
vt 0.248918 0.542004
vt 0.016568 0.640144
vt 0.013784 0.641259
vt 0.251703 0.641259
vt 0.248918 0.640144
vt 0.647949 0.561644
vt 0.649818 0.562392
vt 0.649818 0.628270
vt 0.647949 0.629018
vt 0.641340 0.554838
vt 0.484051 0.556357
vt 0.485373 0.554838
vt 0.478764 0.629019
vt 0.476895 0.628270
vt 0.476895 0.562392
vt 0.478764 0.561644
vt 0.652462 0.563890
vt 0.652462 0.626773
vt 0.474251 0.626773
vt 0.474251 0.563890
vt 0.488016 0.553340
vt 0.638697 0.553340
vt 0.642662 0.556356
vt 0.251703 0.540889
vt 0.014599 0.539741
vn 0.000000 -1.000000 0.000000
vn 0.000000 -1.000000 0.000000
vn 0.000000 -1.000000 0.000000
vn 0.000000 -1.000000 0.000000
vn -1.000000 0.000000 0.000000
vn -1.000000 0.000000 0.000000
vn -1.000000 0.000000 0.000000
vn -1.000000 0.000000 0.000000
vn 1.000000 0.000000 0.000000
vn 1.000000 0.000000 0.000000
vn 1.000000 0.000000 0.000000
vn 1.000000 0.000000 0.000000
vn 0.000000 0.000000 1.000000
vn 0.000000 0.000000 1.000000
vn 0.000000 0.000000 1.000000
vn 0.000000 0.000000 1.000000
vn 0.000000 -1.000000 0.000000
vn 0.000000 -1.000000 0.000000
vn 0.000000 -1.000000 0.000000
vn 0.000000 -1.000000 0.000000
vn 0.000000 -1.000000 0.000000
vn 0.000000 -1.000000 0.000000
vn 0.000000 -1.000000 0.000000
vn 0.000000 -1.000000 0.000000
vn 0.000000 -1.000000 0.000000
vn 0.000000 -1.000000 0.000000
vn 0.000000 -1.000000 0.000000
vn 0.000000 -1.000000 0.000000
vn -0.011602 0.999812 0.015513
vn 0.000000 0.129897 0.991527
vn 0.000000 0.129897 0.991527
vn 0.011602 0.999812 0.015513
vn -0.991568 0.129587 0.000000
vn -0.011602 0.999812 0.015513
vn -0.011602 0.999812 -0.015513
vn -0.991568 0.129587 0.000000
vn 0.011602 0.999812 0.015513
vn 0.991568 0.129587 0.000000
vn 0.991568 0.129587 0.000000
vn 0.011602 0.999812 -0.015513
vn -0.707106 0.707108 0.000000
vn -0.707106 0.707108 0.000000
vn -0.707106 0.707108 0.000000
vn -0.707106 0.707108 0.000000
vn 0.000000 0.707107 0.707107
vn 0.000000 0.707107 0.707107
vn 0.000000 0.707107 0.707107
vn 0.000000 0.707107 0.707107
vn 0.707106 0.707108 0.000000
vn 0.707106 0.707108 0.000000
vn 0.707106 0.707108 0.000000
vn 0.707106 0.707108 0.000000
vn 0.000000 0.000000 1.000000
vn 0.000000 0.000000 1.000000
vn 0.000000 0.000000 1.000000
vn 0.000000 0.000000 1.000000
vn -0.011602 0.999812 0.015513
vn 0.011602 0.999812 0.015513
vn 0.011602 0.999812 -0.015513
vn -0.011602 0.999812 -0.015513
vn 1.000000 0.000000 0.000000
vn 1.000000 0.000000 0.000000
vn 1.000000 0.000000 0.000000
vn 1.000000 0.000000 0.000000
vn -1.000000 0.000000 0.000000
vn -1.000000 0.000000 0.000000
vn -1.000000 0.000000 0.000000
vn -1.000000 0.000000 0.000000
vn -1.000000 0.000000 0.000000
vn -1.000000 0.000000 0.000000
vn -0.991568 0.129587 0.000000
vn -0.991568 0.129587 0.000000
vn 1.000000 0.000000 0.000000
vn 1.000000 0.000000 0.000000
vn 0.991568 0.129587 0.000000
vn 0.991568 0.129587 0.000000
vn 0.000000 0.000000 1.000000
vn 0.000000 0.000000 1.000000
vn 0.000000 0.129897 0.991527
vn 0.000000 0.129897 0.991527
vn 0.000000 1.000000 0.000000
vn 0.000000 1.000000 0.000000
vn 0.000000 1.000000 0.000000
vn 0.000000 1.000000 0.000000
vn 0.000000 1.000000 0.000000
vn 0.000000 1.000000 0.000000
vn 0.000000 1.000000 0.000000
vn 0.000000 1.000000 0.000000
vn 0.000000 1.000000 0.000000
vn 0.000000 1.000000 0.000000
vn 0.000000 1.000000 0.000000
vn 0.000000 1.000000 0.000000
s off
g tower_side_platform:pCube1
usemtl initialShadingGroup
f 3/1/1 4/2/2 2/3/3 1/4/4
f 10/5/5 9/6/6 11/7/7 12/8/8
f 15/11/9 14/10/10 13/9/11 16/12/12
f 9/6/13 15/11/14 16/12/15 11/7/16
f 5/13/17 6/14/18 12/15/19 11/16/20
f 7/17/21 8/18/22 16/19/23 13/20/24
f 8/21/25 5/22/26 11/23/27 16/24/28
f 17/25/29 18/52/30 20/27/31 19/28/32
f 18/26/33 17/25/34 21/29/35 22/30/36
f 19/28/37 20/51/38 24/31/39 23/32/40
f 25/33/41 26/34/42 28/35/43 27/36/44
f 26/37/45 25/50/46 31/38/47 32/39/48
f 29/40/49 30/41/50 32/42/51 31/43/52
f 1/4/53 2/3/54 31/38/55 25/50/56
f 17/25/57 19/28/58 23/32/59 21/29/60
f 2/3/61 4/2/62 29/40/63 31/43/64
f 3/1/65 1/4/66 25/33/67 27/36/68
f 6/14/69 5/13/70 18/26/71 22/30/72
f 8/18/73 7/17/74 24/31/75 20/51/76
f 5/22/77 8/21/78 20/27/79 18/52/80
f 28/35/81 26/34/82 9/44/83 10/45/84
f 32/42/85 30/41/86 14/46/87 15/47/88
f 26/37/89 32/39/90 15/48/91 9/49/92
