# This file uses centimeters as units for non-parametric coordinates.

mtllib upper_middle_side_platform.mtl
g default
v -8.125000 -0.750000 1.636716
v 8.125000 -0.750000 1.636716
v -8.125000 -0.750000 -1.636716
v 8.125000 -0.750000 -1.636716
v 8.125000 0.666667 1.636716
v 8.125000 0.666667 -1.636716
v -8.125000 0.666667 -1.636716
v -8.125000 0.666667 1.636716
v -8.125000 4.666667 1.636716
v -8.125000 4.666667 -1.636716
v -4.000000 4.666667 -1.636716
v -4.000000 4.666667 1.636716
v 2.000000 2.666667 1.636716
v 2.000000 2.666667 -1.636716
v -8.125000 2.666667 -1.636716
v -8.125000 2.666667 1.636716
v 7.925000 0.666667 1.527601
v 7.925000 -0.416667 1.527601
v 7.925000 -0.416667 -1.527601
v 7.925000 0.666667 -1.527601
v -7.925000 0.666667 -1.527601
v -7.925000 -0.416667 -1.527601
v -7.925000 -0.416667 1.527601
v -7.925000 0.666667 1.527601
v -7.925000 3.000000 1.527601
v -7.925000 3.000000 -1.527601
v -7.925000 4.666667 1.527601
v -7.925000 4.666667 -1.527601
v -4.200000 3.000000 -1.527601
v -4.200000 4.666667 -1.527601
v -4.200000 3.000000 1.527601
v -4.200000 4.666667 1.527601
v 1.800000 2.666667 1.527601
v 1.800000 1.000000 1.527601
v 1.800000 2.666667 -1.527601
v 1.800000 1.000000 -1.527601
v -7.925000 2.666667 -1.527601
v -7.925000 1.000000 -1.527601
v -7.925000 2.666667 1.527601
v -7.925000 1.000000 1.527601
v -8.065006 5.000000 1.603985
v -8.125000 4.940006 1.636716
v -4.059994 5.000000 1.603985
v -4.000000 4.940006 1.636716
v -8.125000 4.940006 -1.636716
v -8.065006 5.000000 -1.636716
v -8.125000 2.940006 1.636716
v -8.065006 3.000000 1.603985
v -8.125000 2.940006 -1.636716
v -8.065006 3.000000 -1.603985
v 2.000000 2.940006 1.636716
v 1.940006 3.000000 1.603985
v -4.059994 5.000000 -1.636716
v -4.000000 4.940006 -1.636716
v 8.125000 0.940006 1.636716
v 8.065006 1.000000 1.603985
v 8.065006 1.000000 -1.635681
v 8.125000 0.940006 -1.636716
v -8.125000 0.940006 -1.636716
v -8.065006 1.000000 -1.603985
v -8.125000 0.940006 1.636716
v -8.065006 1.000000 1.603985
v 1.940006 3.000000 -1.635660
v 2.000000 2.940006 -1.636716
v 8.125000 -0.476661 1.636716
v 8.065006 -0.416667 1.603985
v 8.065006 -0.416667 -1.603985
v 8.125000 -0.476661 -1.636716
v -8.125000 -0.476661 -1.636716
v -8.065006 -0.416667 -1.603985
v -8.125000 -0.476661 1.636716
v -8.065006 -0.416667 1.603985
vt 0.359916 0.929654
vt 0.359916 1.000000
vt 0.010706 1.000000
vt 0.010706 0.929654
vt 0.671646 0.053743
vt 0.780188 0.053742
vt 0.780188 0.092230
vt 0.671646 0.092230
vt 0.000000 0.053743
vt 0.108542 0.053743
vt 0.108542 0.092231
vt 0.000000 0.092231
vt 0.000000 0.335240
vt 0.120006 0.335240
vt 0.120006 0.400706
vt 0.000000 0.400706
vt 0.266322 0.335240
vt 0.386329 0.335240
vt 0.386329 0.400706
vt 0.266322 0.400706
vt 0.581822 0.116905
vt 0.581822 0.178141
vt 0.469568 0.178141
vt 0.469568 0.116905
vt 0.112254 0.178141
vt 0.000000 0.178141
vt 0.000000 0.116904
vt 0.112254 0.116905
vt 0.993998 0.897909
vt 0.993998 0.799668
vt 1.000000 0.802943
vt 1.000000 0.894635
vt 0.488411 0.799668
vt 0.488411 0.897909
vt 0.482408 0.894635
vt 0.482408 0.802943
vt 0.985049 0.790396
vt 0.497360 0.790396
vt 0.503362 0.787122
vt 0.979046 0.787122
vt 0.295864 0.542086
vt 0.295864 0.640586
vt 0.289846 0.637303
vt 0.289846 0.545370
vt 0.437934 0.640586
vt 0.437934 0.542086
vt 0.443952 0.545370
vt 0.443952 0.637303
vt 0.428961 0.532790
vt 0.304837 0.532790
vt 0.310855 0.529506
vt 0.422943 0.529506
vt 0.993994 0.643347
vt 0.993994 0.545048
vt 1.000000 0.548325
vt 1.000000 0.640071
vt 0.672038 0.545048
vt 0.672038 0.643347
vt 0.666032 0.640070
vt 0.666032 0.548325
vt 0.985040 0.535771
vt 0.680993 0.535771
vt 0.686998 0.532494
vt 0.979034 0.532494
vt 0.503362 0.894635
vt 0.795225 0.894635
vt 0.983248 0.897878
vt 0.499160 0.896927
vt 0.983238 0.643316
vt 0.682794 0.642364
vt 0.686998 0.640071
vt 0.798858 0.640071
vt 0.306642 0.543071
vt 0.304837 0.541015
vt 0.428961 0.541015
vt 0.427156 0.543071
vt 0.304089 0.542086
vt 0.306642 0.640586
vt 0.304089 0.640586
vt 0.429709 0.542086
vt 0.429709 0.640586
vt 0.427156 0.640586
vt 0.680246 0.545048
vt 0.682794 0.546031
vt 0.680246 0.643347
vt 0.680993 0.543979
vt 0.985040 0.543979
vt 0.983238 0.546031
vt 0.985786 0.545048
vt 0.985786 0.643347
vt 0.985049 0.798600
vt 0.983248 0.800651
vt 0.499160 0.800651
vt 0.497360 0.798600
vt 0.985794 0.799668
vt 0.985794 0.897909
vt 0.496614 0.897909
vt 0.496614 0.799669
vt 0.010706 0.923781
vt 0.011995 0.922312
vt 0.358626 0.922312
vt 0.365790 0.929654
vt 0.003009 0.930358
vt 0.004832 1.000000
vt 0.003009 0.999297
vt 0.367613 0.999296
vt 0.365790 1.000000
vt 0.367613 0.930358
vt 0.000000 0.997655
vt 0.000000 0.931999
vt 0.370622 0.931999
vt 0.370622 0.997655
vt 0.015004 0.920670
vt 0.355618 0.920670
vt 0.686998 0.548325
vt 0.798858 0.548325
vt 0.795225 0.802943
vt 0.503362 0.802943
vt 0.359916 0.923780
vt 0.004832 0.929654
vn 0.000000 -1.000000 0.000000
vn 0.000000 -1.000000 0.000000
vn 0.000000 -1.000000 0.000000
vn 0.000000 -1.000000 0.000000
vn 1.000000 0.000000 0.000000
vn 1.000000 0.000000 0.000000
vn 1.000000 0.000000 0.000000
vn 1.000000 0.000000 0.000000
vn -1.000000 0.000000 0.000000
vn -1.000000 0.000000 0.000000
vn -1.000000 0.000000 0.000000
vn -1.000000 0.000000 0.000000
vn 0.000000 0.000000 1.000000
vn 0.000000 0.000000 1.000000
vn 0.000000 0.000000 1.000000
vn 0.000000 0.000000 1.000000
vn -1.000000 0.000000 0.000000
vn -1.000000 0.000000 0.000000
vn -1.000000 0.000000 0.000000
vn -1.000000 0.000000 0.000000
vn 1.000000 0.000000 0.000000
vn 1.000000 0.000000 0.000000
vn 1.000000 0.000000 0.000000
vn 1.000000 0.000000 0.000000
vn 0.000000 0.000000 1.000000
vn 0.000000 0.000000 1.000000
vn 0.000000 0.000000 1.000000
vn 0.000000 0.000000 1.000000
vn 1.000000 0.000000 0.000000
vn 1.000000 0.000000 0.000000
vn 1.000000 0.000000 0.000000
vn 1.000000 0.000000 0.000000
vn -1.000000 0.000000 0.000000
vn -1.000000 0.000000 0.000000
vn -1.000000 0.000000 0.000000
vn -1.000000 0.000000 0.000000
vn 0.000000 0.000000 1.000000
vn 0.000000 0.000000 1.000000
vn 0.000000 0.000000 1.000000
vn 0.000000 0.000000 1.000000
vn 0.000000 -1.000000 0.000000
vn 0.000000 -1.000000 0.000000
vn 0.000000 -1.000000 0.000000
vn 0.000000 -1.000000 0.000000
vn 0.000000 -1.000000 0.000000
vn 0.000000 -1.000000 0.000000
vn 0.000000 -1.000000 0.000000
vn 0.000000 -1.000000 0.000000
vn 0.000000 -1.000000 0.000000
vn 0.000000 -1.000000 0.000000
vn 0.000000 -1.000000 0.000000
vn 0.000000 -1.000000 0.000000
vn 0.000000 -1.000000 0.000000
vn 0.000000 -1.000000 0.000000
vn 0.000000 -1.000000 0.000000
vn 0.000000 -1.000000 0.000000
vn 0.000000 -1.000000 0.000000
vn 0.000000 -1.000000 0.000000
vn 0.000000 -1.000000 0.000000
vn 0.000000 -1.000000 0.000000
vn 0.000000 -1.000000 -0.000002
vn 0.000000 -1.000000 -0.000002
vn 0.000000 -1.000000 -0.000002
vn 0.000000 -1.000000 -0.000002
vn 0.000000 -1.000000 0.000000
vn 0.000000 -1.000000 0.000000
vn 0.000000 -1.000000 0.000000
vn 0.000000 -1.000000 0.000000
vn 0.000000 -1.000000 0.000000
vn 0.000000 -1.000000 0.000000
vn 0.000000 -1.000000 0.000000
vn 0.000000 -1.000000 0.000000
vn 0.000000 -1.000000 0.000000
vn 0.000000 -1.000000 0.000000
vn 0.000000 -1.000000 0.000000
vn 0.000000 -1.000000 0.000000
vn 0.000000 1.000000 0.000000
vn 0.000000 1.000000 0.000000
vn 0.000000 1.000000 0.000000
vn 0.000000 1.000000 0.000000
vn 0.000000 1.000000 0.000000
vn 0.000000 1.000000 0.000001
vn 0.000000 1.000000 0.000001
vn 0.000000 1.000000 0.000000
vn -0.020235 0.999700 0.013778
vn 0.000000 0.707107 0.707106
vn 0.000000 0.707107 0.707106
vn 0.020235 0.999700 0.013778
vn -0.707111 0.707102 0.000000
vn -0.020235 0.999700 0.013778
vn -0.014830 0.999890 0.000000
vn -0.707111 0.707102 0.000000
vn 0.020235 0.999700 0.013778
vn 0.707104 0.707110 0.000000
vn 0.707104 0.707110 0.000000
vn 0.014830 0.999890 0.000000
vn -0.707110 0.707104 0.000000
vn -0.707110 0.707104 0.000000
vn -0.707110 0.707104 0.000000
vn -0.707110 0.707104 0.000000
vn 0.000000 0.707107 0.707107
vn 0.000000 0.707107 0.707107
vn 0.000000 0.707107 0.707107
vn 0.000000 0.707107 0.707107
vn 0.707106 0.707107 0.000000
vn 0.707106 0.707107 0.000000
vn 0.707106 0.707107 0.000000
vn 0.707106 0.707107 0.000000
vn 0.000000 0.707108 0.707106
vn 0.000000 0.707108 0.707106
vn 0.000000 0.707108 0.707106
vn 0.000000 0.707108 0.707106
vn 0.707109 0.707105 0.000000
vn 0.707109 0.707105 0.000000
vn 0.707109 0.707105 0.000000
vn 0.707109 0.707105 0.000000
vn -0.707110 0.707104 0.000000
vn -0.707110 0.707104 0.000000
vn -0.707110 0.707104 0.000000
vn -0.707110 0.707104 0.000000
vn 0.000000 0.707107 0.707107
vn 0.000000 0.707107 0.707107
vn 0.000000 0.707107 0.707107
vn 0.000000 0.707107 0.707107
vn 0.707110 0.707104 0.000000
vn 0.707110 0.707104 0.000000
vn 0.707110 0.707104 0.000000
vn 0.707110 0.707104 0.000000
vn -0.707110 0.707104 0.000000
vn -0.707110 0.707104 0.000000
vn -0.707110 0.707104 0.000000
vn -0.707110 0.707104 0.000000
vn -1.000000 0.000000 0.000000
vn -1.000000 0.000000 0.000000
vn -1.000000 0.000000 0.000000
vn -1.000000 0.000000 0.000000
vn 0.000000 0.000000 1.000000
vn 0.000000 0.000000 1.000000
vn 0.000000 0.000000 1.000000
vn 0.000000 0.000000 1.000000
vn -0.014830 0.999890 0.000000
vn -0.020235 0.999700 0.013778
vn 0.020235 0.999700 0.013778
vn 0.014830 0.999890 0.000000
vn 1.000000 0.000000 0.000000
vn 1.000000 0.000000 0.000000
vn 1.000000 0.000000 0.000000
vn 1.000000 0.000000 0.000000
vn -1.000000 0.000000 0.000000
vn -1.000000 0.000000 0.000000
vn -1.000000 0.000000 0.000000
vn -1.000000 0.000000 0.000000
vn 0.000000 0.000000 1.000000
vn 0.000000 0.000000 1.000000
vn 0.000000 0.000000 1.000000
vn 0.000000 0.000000 1.000000
vn 1.000000 0.000001 0.000000
vn 1.000000 0.000001 0.000000
vn 1.000000 0.000001 0.000000
vn 1.000000 0.000001 0.000000
vn 1.000000 0.000000 0.000000
vn 1.000000 0.000000 0.000000
vn 1.000000 0.000000 0.000000
vn 1.000000 0.000000 0.000000
vn -1.000000 0.000000 0.000000
vn -1.000000 0.000000 0.000000
vn -1.000000 0.000000 0.000000
vn -1.000000 0.000000 0.000000
vn 0.000000 0.000000 1.000000
vn 0.000000 0.000000 1.000000
vn 0.000000 0.000000 1.000000
vn 0.000000 0.000000 1.000000
vn -1.000000 0.000000 0.000000
vn -1.000000 0.000000 0.000000
vn -1.000000 0.000000 0.000000
vn -1.000000 0.000000 0.000000
vn 1.000000 0.000000 0.000000
vn 1.000000 0.000000 0.000000
vn 1.000000 0.000000 0.000000
vn 1.000000 0.000000 0.000000
vn 0.000000 0.000000 1.000000
vn 0.000000 0.000000 1.000000
vn 0.000000 0.000000 1.000000
vn 0.000000 0.000000 1.000000
vn 0.000000 1.000000 0.000000
vn 0.000000 1.000000 0.000000
vn 0.000000 1.000000 0.000000
vn 0.000000 1.000000 0.000000
vn 0.000000 1.000000 0.000000
vn 0.000000 1.000000 0.000000
vn 0.000000 1.000000 0.000000
vn 0.000000 1.000000 0.000000
vn 0.000000 1.000000 0.000000
vn 0.000000 1.000000 0.000000
vn 0.000000 1.000000 0.000000
vn 0.000000 1.000000 0.000000
vn 0.000000 1.000000 0.000001
vn 0.000000 1.000000 -0.000001
vn 0.000000 1.000000 -0.000001
vn 0.000000 1.000000 0.000001
vn 0.000000 1.000000 0.000000
vn 0.000000 1.000000 0.000000
vn 0.000000 1.000000 0.000000
vn 0.000000 1.000000 0.000000
vn 0.000000 1.000000 -0.000001
vn 0.000000 1.000000 0.000000
vn 0.000000 1.000000 0.000000
vn 0.000000 1.000000 -0.000001
vn 0.000000 1.000000 0.000000
vn 0.000000 1.000000 0.000000
vn 0.000000 1.000000 0.000000
vn 0.000000 1.000000 0.000000
vn 0.000000 1.000000 0.000000
vn 0.000000 1.000000 0.000000
vn 0.000000 1.000000 0.000000
vn 0.000000 1.000000 0.000000
vn 0.000000 1.000000 0.000000
vn 0.000000 1.000000 0.000000
vn 0.000000 1.000000 0.000000
vn 0.000000 1.000000 0.000000
s off
g upper_middle_side_platform_lp
usemtl initialShadingGroup
f 1/1/1 3/2/2 4/3/3 2/4/4
f 18/5/5 19/6/6 20/7/7 17/8/8
f 22/9/9 23/10/10 24/11/11 21/12/12
f 17/8/13 24/11/14 23/10/15 18/5/16
f 26/13/17 25/14/18 27/15/19 28/16/20
f 31/17/21 29/18/22 30/19/23 32/20/24
f 27/15/25 25/14/26 31/17/27 32/20/28
f 36/21/29 35/22/30 33/23/31 34/24/32
f 39/25/33 37/26/34 38/27/35 40/28/36
f 34/24/37 33/23/38 39/25/39 40/28/40
f 6/29/41 5/30/42 17/31/43 20/32/44
f 8/33/45 7/34/46 21/35/47 24/36/48
f 5/37/49 8/38/50 24/39/51 17/40/52
f 9/41/53 10/42/54 28/43/55 27/44/56
f 11/45/57 12/46/58 32/47/59 30/48/60
f 12/49/61 9/50/62 27/51/63 32/52/64
f 14/53/65 13/54/66 33/55/67 35/56/68
f 16/57/69 15/58/70 37/59/71 39/60/72
f 13/61/73 16/62/74 39/63/75 33/64/76
f 38/65/77 36/66/78 57/67/79 60/68/80
f 63/69/81 50/70/82 26/71/83 29/72/84
f 41/73/85 42/74/86 44/75/87 43/76/88
f 42/77/89 41/73/90 46/78/91 45/79/92
f 43/76/93 44/80/94 54/81/95 53/82/96
f 47/83/97 48/84/98 50/70/99 49/85/100
f 48/84/101 47/86/102 51/87/103 52/88/104
f 52/88/105 51/89/106 64/90/107 63/69/108
f 55/91/109 56/92/110 62/93/111 61/94/112
f 56/92/113 55/95/114 58/96/115 57/67/116
f 60/68/117 59/97/118 61/98/119 62/93/120
f 65/99/121 66/100/122 72/101/123 71/119/124
f 66/103/125 65/120/126 68/104/127 67/105/128
f 70/106/129 69/107/130 71/102/131 72/108/132
f 15/58/133 16/57/134 47/83/135 49/85/136
f 51/87/137 47/86/138 16/62/139 13/61/140
f 46/78/141 41/73/142 43/76/143 53/82/144
f 5/30/145 6/29/146 58/96/147 55/95/148
f 7/34/149 8/33/150 61/98/151 59/97/152
f 55/91/153 61/94/154 8/38/155 5/37/156
f 14/53/157 64/90/158 51/89/159 13/54/160
f 2/4/161 4/3/162 68/104/163 65/120/164
f 3/2/165 1/1/166 71/102/167 69/107/168
f 65/99/169 71/119/170 1/1/171 2/4/172
f 10/42/173 9/41/174 42/77/175 45/79/176
f 12/46/177 11/45/178 54/81/179 44/80/180
f 9/50/181 12/49/182 44/75/183 42/74/184
f 66/103/185 67/105/186 19/109/187 18/110/188
f 70/106/189 72/108/190 23/111/191 22/112/192
f 72/101/193 66/100/194 18/113/195 23/114/196
f 50/70/197 48/84/198 25/115/199 26/71/200
f 52/88/201 63/69/202 29/72/203 31/116/204
f 48/84/205 52/88/206 31/116/207 25/115/208
f 56/92/209 57/67/210 36/66/211 34/117/212
f 60/68/213 62/93/214 40/118/215 38/65/216
f 62/93/217 56/92/218 34/117/219 40/118/220
