# This file uses centimeters as units for non-parametric coordinates.

mtllib top_platform.mtl
g default
v -11.250000 -0.750000 1.704637
v 11.250000 -0.750000 1.704637
v -11.250000 -0.750000 -1.704637
v 11.250000 -0.750000 -1.704637
v -11.250000 0.666667 1.704637
v -11.250000 0.666667 -1.704637
v 11.250000 0.666667 -1.704637
v 11.250000 0.666667 1.704637
v -3.750000 4.181818 1.704637
v -3.750000 4.181818 -1.704637
v 3.750000 4.181818 -1.704637
v 3.750000 4.181818 1.704637
v -11.050000 -0.416667 1.590994
v -11.050000 0.666667 1.590994
v -11.050000 -0.416667 -1.590994
v -11.050000 0.666667 -1.590994
v 11.050000 -0.416667 -1.590994
v 11.050000 0.666667 -1.590994
v 11.050000 -0.416667 1.590994
v 11.050000 0.666667 1.590994
v -3.550000 1.000000 1.590994
v -3.550000 1.000000 -1.590994
v -3.550000 4.181818 1.590994
v -3.550000 4.181818 -1.590994
v 3.550000 1.000000 -1.590994
v 3.550000 4.181818 -1.590994
v 3.550000 1.000000 1.590994
v 3.550000 4.181818 1.590994
v -3.686370 4.500000 1.668481
v -3.750000 4.436370 1.704637
v 3.686370 4.500000 1.668481
v 3.750000 4.436370 1.704637
v -3.686370 4.500000 -1.668481
v -3.750000 4.436370 -1.704637
v 3.686370 4.500000 -1.668481
v 3.750000 4.436370 -1.704637
v -11.250000 0.936370 1.704637
v -11.186370 1.000000 1.668481
v -11.250000 0.936370 -1.704637
v -11.186370 1.000000 -1.668481
v 11.250000 0.936370 -1.704637
v 11.186370 1.000000 -1.668481
v 11.250000 0.936370 1.704637
v 11.186370 1.000000 1.668481
v -11.250000 -0.476661 1.704637
v -11.190006 -0.416667 1.670547
v -11.250000 -0.476661 -1.704637
v -11.190006 -0.416667 -1.670547
v 11.190006 -0.416667 -1.670547
v 11.250000 -0.476661 -1.704637
v 11.250000 -0.476661 1.704637
v 11.190006 -0.416667 1.670547
vt 0.988559 0.921704
vt 0.988559 1.000000
vt 0.471831 1.000000
vt 0.471831 0.921703
vt 0.000000 0.000000
vt 0.110618 0.000000
vt 0.110618 0.037661
vt 0.000000 0.037661
vt 0.878898 0.000000
vt 0.989516 0.000000
vt 0.989516 0.037661
vt 0.878898 0.037661
vt 0.000000 0.197056
vt 0.118253 0.197056
vt 0.118253 0.315303
vt 0.000000 0.315303
vt 0.382112 0.315302
vt 0.382112 0.197056
vt 0.500365 0.197056
vt 0.500365 0.315302
vt 0.005890 0.673960
vt 0.005890 0.774355
vt 0.000000 0.771009
vt 0.000000 0.677306
vt 0.685902 0.774355
vt 0.685902 0.673960
vt 0.691791 0.677306
vt 0.691791 0.771009
vt 0.677183 0.664927
vt 0.014608 0.664927
vt 0.020497 0.661581
vt 0.671294 0.661581
vt 0.732523 0.674119
vt 0.732523 0.774712
vt 0.726622 0.771359
vt 0.726622 0.677472
vt 0.970393 0.774712
vt 0.970393 0.674119
vt 0.976294 0.677472
vt 0.976294 0.771359
vt 0.962104 0.665516
vt 0.740811 0.665516
vt 0.746712 0.662163
vt 0.956203 0.662162
vt 0.742689 0.675186
vt 0.740811 0.673027
vt 0.962104 0.673026
vt 0.960227 0.675186
vt 0.740033 0.674119
vt 0.742689 0.773646
vt 0.740033 0.774712
vt 0.962882 0.674119
vt 0.962882 0.774712
vt 0.960227 0.773645
vt 0.013832 0.673960
vt 0.016482 0.675024
vt 0.016482 0.773291
vt 0.013832 0.774355
vt 0.014608 0.672869
vt 0.677183 0.672869
vt 0.675310 0.675025
vt 0.675310 0.773291
vt 0.677960 0.774355
vt 0.677960 0.673960
vt 0.241356 0.677306
vt 0.241356 0.771009
vt 0.450435 0.771009
vt 0.450435 0.677306
vt 0.994836 0.921704
vt 0.996785 0.922487
vt 0.996785 0.999217
vt 0.994836 1.000000
vt 0.987181 0.913842
vt 0.471831 0.915426
vt 0.473209 0.913841
vt 0.465554 1.000000
vt 0.463605 0.999217
vt 0.463605 0.922486
vt 1.000000 0.924314
vt 1.000000 0.997390
vt 0.460390 0.997390
vt 0.460390 0.924313
vt 0.476424 0.912014
vt 0.983965 0.912015
vt 0.988559 0.915426
vt 0.465554 0.921703
vn 0.000000 -1.000000 0.000000
vn 0.000000 -1.000000 0.000000
vn 0.000000 -1.000000 0.000000
vn 0.000000 -1.000000 0.000000
vn -1.000000 0.000000 0.000000
vn -1.000000 0.000000 0.000000
vn -1.000000 0.000000 0.000000
vn -1.000000 0.000000 0.000000
vn 1.000000 0.000000 0.000000
vn 1.000000 0.000000 0.000000
vn 1.000000 0.000000 0.000000
vn 1.000000 0.000000 0.000000
vn 0.000000 0.000000 1.000000
vn 0.000000 0.000000 1.000000
vn 0.000000 0.000000 1.000000
vn 0.000000 0.000000 1.000000
vn -1.000000 0.000000 0.000000
vn -1.000000 0.000000 0.000000
vn -1.000000 0.000000 0.000000
vn -1.000000 0.000000 0.000000
vn 1.000000 0.000000 0.000000
vn 1.000000 0.000000 0.000000
vn 1.000000 0.000000 0.000000
vn 1.000000 0.000000 0.000000
vn 0.000000 0.000000 1.000000
vn 0.000000 0.000000 1.000000
vn 0.000000 0.000000 1.000000
vn 0.000000 0.000000 1.000000
vn 0.000000 -1.000000 0.000000
vn 0.000000 -1.000000 0.000000
vn 0.000000 -1.000000 0.000000
vn 0.000000 -1.000000 0.000000
vn 0.000000 -1.000000 0.000000
vn 0.000000 -1.000000 0.000000
vn 0.000000 -1.000000 0.000000
vn 0.000000 -1.000000 0.000000
vn 0.000000 -1.000000 0.000000
vn 0.000000 -1.000000 0.000000
vn 0.000000 -1.000000 0.000000
vn 0.000000 -1.000000 0.000000
vn 0.000000 -1.000000 0.000000
vn 0.000000 -1.000000 0.000000
vn 0.000000 -1.000000 0.000000
vn 0.000000 -1.000000 0.000000
vn 0.000000 -1.000000 0.000000
vn 0.000000 -1.000000 0.000000
vn 0.000000 -1.000000 0.000000
vn 0.000000 -1.000000 0.000000
vn 0.000000 -1.000000 0.000000
vn 0.000000 -1.000000 0.000000
vn 0.000000 -1.000000 0.000000
vn 0.000000 -1.000000 0.000000
vn -0.011817 0.999821 0.014803
vn -0.614281 0.180924 0.768066
vn 0.614281 0.180924 0.768066
vn 0.011817 0.999821 0.014803
vn -0.614281 0.180924 0.768066
vn -0.011817 0.999821 0.014803
vn -0.011817 0.999821 -0.014803
vn -0.947634 0.279106 -0.155206
vn 0.011817 0.999821 0.014803
vn 0.614281 0.180924 0.768066
vn 0.947634 0.279107 -0.155206
vn 0.011817 0.999821 -0.014803
vn -0.254468 0.151194 0.955189
vn -0.011457 0.998996 0.043301
vn -0.011457 0.998996 -0.043301
vn -0.797129 0.473620 -0.374526
vn -0.011457 0.998996 0.043301
vn -0.254468 0.151194 0.955189
vn 0.254468 0.151194 0.955189
vn 0.011457 0.998996 0.043301
vn 0.797129 0.473620 -0.374526
vn 0.011457 0.998996 -0.043301
vn 0.011457 0.998996 0.043301
vn 0.254468 0.151194 0.955189
vn -0.011817 0.999821 0.014803
vn 0.011817 0.999821 0.014803
vn 0.011817 0.999821 -0.014803
vn -0.011817 0.999821 -0.014803
vn -1.000000 0.000000 0.000000
vn -1.000000 0.000000 0.000000
vn -0.254468 0.151194 0.955189
vn -0.797129 0.473620 -0.374526
vn 1.000000 0.000000 0.000000
vn 1.000000 0.000000 0.000000
vn 0.797129 0.473620 -0.374526
vn 0.254468 0.151194 0.955189
vn -0.254468 0.151194 0.955189
vn 0.000000 0.000000 1.000000
vn 0.000000 0.000000 1.000000
vn 0.254468 0.151194 0.955189
vn -0.947634 0.279106 -0.155206
vn -1.000000 0.000000 0.000000
vn -1.000000 0.000000 0.000000
vn -0.614281 0.180924 0.768066
vn 0.614281 0.180924 0.768066
vn 1.000000 0.000000 0.000000
vn 1.000000 0.000000 0.000000
vn 0.947634 0.279107 -0.155206
vn -0.614281 0.180924 0.768066
vn 0.000000 0.000000 1.000000
vn 0.000000 0.000000 1.000000
vn 0.614281 0.180924 0.768066
vn -0.011457 0.998996 -0.043301
vn -0.011457 0.998996 0.043301
vn 0.000000 1.000000 0.000000
vn 0.000000 1.000000 0.000000
vn 0.011457 0.998996 -0.043301
vn -0.011457 0.998996 -0.043301
vn 0.000000 1.000000 0.000000
vn 0.000000 1.000000 0.000000
vn 0.011457 0.998996 0.043301
vn 0.011457 0.998996 -0.043301
vn 0.000000 1.000000 0.000000
vn 0.000000 1.000000 0.000000
vn -0.011457 0.998996 0.043301
vn 0.011457 0.998996 0.043301
vn 0.000000 1.000000 0.000000
vn 0.000000 1.000000 0.000000
vn -0.254841 0.142122 0.956482
vn -0.104583 0.912670 0.395091
vn -0.198060 0.980190 -0.000000
vn -0.993257 0.115937 0.000000
vn -0.104583 0.912670 0.395091
vn -0.254841 0.142122 0.956482
vn 0.254841 0.142122 0.956482
vn 0.104583 0.912670 0.395091
vn 0.993257 0.115937 0.000000
vn 0.198060 0.980190 0.000000
vn 0.104583 0.912670 0.395091
vn 0.254841 0.142122 0.956482
vn 1.000000 0.000000 0.000000
vn 1.000000 0.000000 0.000000
vn 0.993257 0.115937 0.000000
vn 0.254841 0.142122 0.956482
vn -1.000000 0.000000 0.000000
vn -1.000000 0.000000 0.000000
vn -0.254841 0.142122 0.956482
vn -0.993257 0.115937 0.000000
vn 0.254841 0.142122 0.956482
vn -0.254841 0.142122 0.956482
vn 0.000000 0.000000 1.000000
vn 0.000000 0.000000 1.000000
vn -0.198060 0.980190 -0.000000
vn -0.104583 0.912670 0.395091
vn 0.000000 1.000000 0.000000
vn 0.000000 1.000000 0.000000
vn 0.104583 0.912670 0.395091
vn 0.198060 0.980190 0.000000
vn 0.000000 1.000000 0.000000
vn 0.000000 1.000000 0.000000
vn -0.104583 0.912670 0.395091
vn 0.104583 0.912670 0.395091
vn 0.000000 1.000000 0.000000
vn 0.000000 1.000000 0.000000
s off
g top_platform_lp
usemtl initialShadingGroup
f 1/1/1 3/2/2 4/3/3 2/4/4
f 15/5/5 13/6/6 14/7/7 16/8/8
f 19/9/9 17/10/10 18/11/11 20/12/12
f 20/12/13 14/7/14 13/6/15 19/9/16
f 22/13/17 21/14/18 23/15/19 24/16/20
f 28/17/21 27/18/22 25/19/23 26/20/24
f 23/15/25 21/14/26 27/18/27 28/17/28
f 5/21/29 6/22/30 16/23/31 14/24/32
f 7/25/33 8/26/34 20/27/35 18/28/36
f 8/29/37 5/30/38 14/31/39 20/32/40
f 9/33/41 10/34/42 24/35/43 23/36/44
f 11/37/45 12/38/46 28/39/47 26/40/48
f 12/41/49 9/42/50 23/43/51 28/44/52
f 29/45/53 30/46/54 32/47/55 31/48/56
f 30/49/57 29/45/58 33/50/59 34/51/60
f 31/48/61 32/52/62 36/53/63 35/54/64
f 37/55/65 38/56/66 40/57/67 39/58/68
f 38/56/69 37/59/70 43/60/71 44/61/72
f 41/63/73 42/62/74 44/61/75 43/64/76
f 29/45/77 31/48/78 35/54/79 33/50/80
f 6/22/81 5/21/82 37/55/83 39/58/84
f 8/26/85 7/25/86 41/63/87 43/64/88
f 37/59/89 5/30/90 8/29/91 43/60/92
f 34/51/93 10/34/94 9/33/95 30/49/96
f 32/52/97 12/38/98 11/37/99 36/53/100
f 30/46/101 9/42/102 12/41/103 32/47/104
f 40/57/105 38/56/106 21/65/107 22/66/108
f 42/62/109 40/57/110 22/66/111 25/67/112
f 44/61/113 42/62/114 25/67/115 27/68/116
f 38/56/117 44/61/118 27/68/119 21/65/120
f 45/69/121 46/70/122 48/71/123 47/72/124
f 46/73/125 45/85/126 51/74/127 52/75/128
f 50/76/129 49/77/130 52/78/131 51/86/132
f 2/4/133 4/3/134 50/76/135 51/86/136
f 3/2/137 1/1/138 45/69/139 47/72/140
f 51/74/141 45/85/142 1/1/143 2/4/144
f 48/71/145 46/70/146 13/79/147 15/80/148
f 52/78/149 49/77/150 17/81/151 19/82/152
f 46/73/153 52/75/154 19/83/155 13/84/156
