# This file uses centimeters as units for non-parametric coordinates.

mtllib castle_bottom_side.mtl
g default
v 12.500000 1.437500 6.000000
v 12.500000 1.437500 -6.000000
v 12.500000 3.500001 -6.000000
v 0.000000 3.500001 -6.000000
v -0.451954 -10.000000 -6.000000
v 0.000000 -11.500000 6.000000
v 10.416664 1.437500 -6.000000
v 10.416664 1.437500 6.000000
v 8.333336 1.187500 -6.000000
v 8.333336 1.187500 6.000000
v 6.250000 0.687500 -6.000000
v 6.250000 0.687500 6.000000
v 4.000000 -0.437499 -6.000000
v 4.000000 -0.437499 6.000000
v 2.500000 -2.000000 -6.000000
v 2.500000 -2.000000 6.000000
v 1.000000 -4.875000 -6.000000
v 1.000000 -4.875000 6.000000
v -12.500000 -11.500000 -7.500000
v 0.000000 -11.500000 -5.250000
v -12.500000 11.037204 7.500000
v 12.500000 11.037204 7.500000
v 12.500000 11.037204 -5.000000
v -12.500000 11.037204 -5.000000
v 12.500000 9.499998 5.000000
v -12.500000 9.499998 5.000000
v -12.500000 9.499998 -5.000000
v 12.500000 9.499998 -5.000000
v 12.500000 1.437500 -5.250000
v 10.416664 1.437500 -5.250000
v 8.333336 1.187500 -5.250000
v 6.250000 0.687500 -5.250000
v 4.000000 -0.437499 -5.250000
v 2.500000 -2.000000 -5.250000
v 1.000000 -4.875000 -5.250000
v 1.963863 -5.189447 -5.250000
v -0.201954 -14.510094 -5.250000
v 12.500000 0.437500 -5.250000
v 10.476452 0.437500 -5.250000
v 8.510189 0.201548 -5.250000
v 6.594757 -0.258155 -5.250000
v 4.601742 -1.254663 -5.250000
v 3.320431 -2.589361 -5.250000
v 0.000000 -11.500000 -6.000000
v -12.500000 9.499998 -7.500000
v 12.500000 9.499998 -7.500000
v 1.963863 -5.189447 -6.425647
v 1.893578 -5.163424 -6.500000
v -0.207558 -14.408989 -6.500000
v -0.201954 -14.510094 -6.398741
v 12.500000 0.437500 -6.425647
v 12.500000 0.511853 -6.500000
v 10.476452 0.437500 -6.425647
v 10.472008 0.511853 -6.500000
v 8.510189 0.201548 -6.425647
v 8.497040 0.274856 -6.500000
v 6.594757 -0.258155 -6.425647
v 6.569122 -0.187842 -6.500000
v 4.601742 -1.254663 -6.425647
v 4.556999 -1.193905 -6.500000
v 3.320431 -2.589361 -6.425647
v 3.259430 -2.545541 -6.500000
v -0.074352 -11.500000 -7.500000
v 0.000000 -11.500000 -7.425647
v 0.000000 3.500001 -7.425647
v -0.074352 3.574354 -7.500000
v 12.500000 10.962851 5.000000
v 12.500000 11.037204 5.074353
v -12.500000 11.037204 5.074353
v -12.500000 10.962851 5.000000
v -12.500000 11.037204 -7.425647
v -12.500000 10.962851 -7.500000
v 12.500000 10.962851 -7.500000
v 12.500000 11.037204 -7.425647
v 12.500000 3.500001 -7.425647
v 12.500000 3.574354 -7.500000
v -0.451954 -10.000000 -6.400010
v -0.446419 -10.099836 -6.500000
v 1.069454 -4.902618 -6.500000
v 1.000000 -4.875000 -6.425647
v 10.421108 1.363147 -6.500000
v 10.416664 1.437500 -6.425647
v 12.500000 1.363147 -6.500000
v 12.500000 1.437500 -6.425647
v 8.346485 1.114192 -6.500000
v 8.333336 1.187500 -6.425647
v 6.275635 0.617188 -6.500000
v 6.250000 0.687500 -6.425647
v 4.044743 -0.498258 -6.500000
v 4.000000 -0.437499 -6.425647
v 2.561001 -2.043820 -6.500000
v 2.500000 -2.000000 -6.425647
vt 0.184061 0.498206
vt 0.206120 0.682943
vt 0.174092 0.795992
vt 0.459790 0.498206
vt 0.459789 0.543701
vt 0.413835 0.543701
vt 0.367880 0.549215
vt 0.321925 0.560245
vt 0.272294 0.585060
vt 0.239207 0.619526
vt 0.608412 1.000000
vt 0.608412 0.855782
vt 0.968957 0.855782
vt 0.968957 1.000000
vt 0.198356 0.824853
vt 0.198356 1.000000
vt 0.165921 1.000000
vt 0.165921 0.824853
vt 0.231023 0.824853
vt 0.231023 1.000000
vt 0.264378 0.824853
vt 0.264378 1.000000
vt 0.303542 0.824853
vt 0.303542 1.000000
vt 0.337264 0.824853
vt 0.337264 1.000000
vt 0.387749 0.824853
vt 0.387749 1.000000
vt 0.492059 0.824853
vt 0.492059 1.000000
vt 0.426216 0.260638
vt 0.063896 0.260638
vt 0.426216 0.225484
vt 0.426216 0.215262
vt 0.063896 0.223960
vt 0.063896 0.194062
vt 0.426216 0.194062
vt 0.063896 0.223960
vt 0.999999 0.754908
vt 0.063896 0.260638
vt 0.063896 0.225484
vt 0.426216 0.225484
vt 0.426216 0.260638
vt 0.405431 0.321624
vt 0.579707 0.319709
vt 0.577931 0.321624
vt 0.162943 0.321624
vt 0.199965 0.321624
vt 0.236594 0.321624
vt 0.273359 0.321624
vt 0.315317 0.321624
vt 0.350633 0.321624
vt 1.000000 0.843072
vt 0.772783 0.844144
vt 0.773860 0.845668
vt 0.591622 0.845667
vt 0.063896 0.225484
vt 0.999999 0.796187
vt 0.502423 0.343302
vt 0.500612 0.345081
vt 0.405454 0.339056
vt 0.199659 0.339110
vt 0.162670 0.337307
vt 0.236609 0.338777
vt 0.273278 0.338602
vt 0.315447 0.338376
vt 0.350192 0.338088
vt 0.405602 0.298133
vt 0.579786 0.298890
vt 0.405523 0.319699
vt 0.162941 0.319859
vt 0.162740 0.298466
vt 0.199857 0.297955
vt 0.199961 0.319635
vt 0.236530 0.297904
vt 0.236595 0.319706
vt 0.273371 0.297475
vt 0.273374 0.319670
vt 0.315381 0.297720
vt 0.315312 0.319658
vt 0.350677 0.297459
vt 0.350665 0.319646
vt 1.000000 0.844596
vt 1.000000 0.162325
vt 0.591622 0.823482
vt 0.772783 0.823482
vt 0.591622 0.844143
vt 0.405566 0.337208
vt 0.162761 0.335492
vt 0.199690 0.337232
vt 0.236601 0.336962
vt 0.273281 0.336838
vt 0.315428 0.336608
vt 0.350238 0.336338
vt 0.500187 0.352106
vt 0.405131 0.346534
vt 0.162306 0.344949
vt 0.199542 0.346692
vt 0.236663 0.346007
vt 0.273325 0.345882
vt 0.315474 0.345333
vt 0.350129 0.345225
vt 1.000000 0.822410
vt 0.294543 0.754907
vt 0.294543 0.587696
vt 0.649369 0.587696
vt 0.649370 0.162325
vt 0.781531 0.844596
vt 0.782608 0.822410
vt 0.782608 0.843072
vt 0.426217 0.223960
vt 0.294543 0.796187
vt 0.426216 0.223960
vt 0.063896 0.215262
vn 0.000000 0.000000 -1.000000
vn 0.000000 0.000000 -1.000000
vn 0.000000 0.000000 -1.000000
vn 0.000000 0.000000 -1.000000
vn 0.000000 0.000000 -1.000000
vn 0.000000 0.000000 -1.000000
vn 0.000000 0.000000 -1.000000
vn 0.000000 0.000000 -1.000000
vn 0.000000 0.000000 -1.000000
vn 0.000000 0.000000 -1.000000
vn 0.000000 0.000000 -1.000000
vn 0.000000 0.000000 -1.000000
vn 0.000000 0.000000 -1.000000
vn 0.000000 0.000000 -1.000000
vn 0.000000 0.000000 -1.000000
vn 0.000000 0.000000 -1.000000
vn 0.000000 0.000000 -1.000000
vn 0.000000 0.000000 -1.000000
vn 0.000000 0.000000 -1.000000
vn 0.000000 0.000000 -1.000000
vn 0.000000 0.000000 -1.000000
vn 0.000000 0.000000 -1.000000
vn 0.000000 1.000000 0.000000
vn 0.000000 1.000000 0.000000
vn 0.000000 1.000000 0.000000
vn 0.000000 1.000000 0.000000
vn 0.000000 0.000000 -1.000000
vn 0.000000 0.000000 -1.000000
vn 0.000000 0.000000 -1.000000
vn 0.000000 0.000000 -1.000000
vn 0.000000 1.000000 0.000000
vn 0.000000 1.000000 0.000000
vn 0.000000 1.000000 0.000000
vn 0.000000 1.000000 0.000000
vn 0.000000 1.000000 0.000000
vn 0.000000 1.000000 0.000000
vn 0.000000 1.000000 0.000000
vn 0.000000 1.000000 0.000000
vn 0.000000 0.000000 -1.000000
vn 0.000000 0.000000 -1.000000
vn 0.000000 0.000000 -1.000000
vn 0.000000 0.000000 -1.000000
vn 0.059892 -0.998205 0.000000
vn 0.059892 -0.998205 0.000000
vn 0.000000 -1.000000 0.000000
vn 0.000000 -1.000000 0.000000
vn 0.177153 -0.984183 0.000000
vn 0.177153 -0.984183 0.000000
vn 0.059892 -0.998205 0.000000
vn 0.059892 -0.998205 0.000000
vn 0.351123 -0.936329 0.000000
vn 0.351123 -0.936329 0.000000
vn 0.177153 -0.984183 0.000000
vn 0.177153 -0.984183 0.000000
vn 0.582519 -0.812817 0.000000
vn 0.582519 -0.812817 0.000000
vn 0.351123 -0.936329 0.000000
vn 0.351123 -0.936329 0.000000
vn 0.828443 -0.560074 0.000000
vn 0.828443 -0.560074 0.000000
vn 0.582519 -0.812817 0.000000
vn 0.582519 -0.812817 0.000000
vn 0.967075 -0.254493 0.000000
vn 0.967075 -0.254493 0.000000
vn 0.828443 -0.560074 0.000000
vn 0.828443 -0.560074 0.000000
vn 0.988799 -0.149253 0.000000
vn 0.988799 -0.149253 0.000000
vn 0.967075 -0.254493 0.000000
vn 0.967075 -0.254493 0.000000
vn 0.797263 -0.228523 -0.558703
vn 0.797137 -0.228614 -0.558846
vn 0.584433 -0.391970 -0.710491
vn 0.584433 -0.391970 -0.710491
vn 0.841499 -0.194126 -0.504177
vn 0.841499 -0.194126 -0.504177
vn 0.000000 -0.707107 -0.707107
vn 0.000000 -0.707107 -0.707107
vn 0.041731 -0.705243 -0.707736
vn 0.041730 -0.705243 -0.707736
vn 0.124652 -0.695429 -0.707701
vn 0.124652 -0.695429 -0.707701
vn 0.246131 -0.660434 -0.709399
vn 0.246131 -0.660434 -0.709399
vn 0.407187 -0.571760 -0.712243
vn 0.407188 -0.571759 -0.712243
vn 0.707112 0.000000 -0.707102
vn 0.707112 0.000000 -0.707102
vn 0.707112 0.000000 -0.707102
vn 0.707112 0.000000 -0.707101
vn 0.000000 -0.707109 -0.707105
vn 0.000000 -0.707109 -0.707105
vn 0.000000 -0.707109 -0.707105
vn 0.000000 -0.707109 -0.707105
vn 0.000000 0.707108 -0.707106
vn 0.000000 0.707108 -0.707106
vn 0.000000 0.707108 -0.707106
vn 0.000000 0.707108 -0.707106
vn 0.000000 0.707108 -0.707106
vn 0.000000 0.707108 -0.707106
vn 0.000000 0.707108 -0.707106
vn 0.000000 0.707108 -0.707106
vn -0.819157 0.234221 -0.523567
vn -0.819157 0.234221 -0.523567
vn -0.752909 0.272197 -0.599197
vn -0.752662 0.272324 -0.599450
vn -0.583019 0.394001 -0.710529
vn -0.583019 0.394001 -0.710529
vn -0.042291 0.705210 -0.707736
vn -0.042291 0.705210 -0.707736
vn 0.000000 0.707107 -0.707107
vn 0.000000 0.707107 -0.707107
vn -0.125143 0.695341 -0.707701
vn -0.125142 0.695341 -0.707701
vn -0.247429 0.659955 -0.709393
vn -0.247429 0.659954 -0.709393
vn -0.408822 0.570573 -0.712258
vn -0.408823 0.570572 -0.712258
vn 0.958862 -0.283875 0.000000
vn 0.974049 -0.226338 0.000000
vn 0.974049 -0.226338 0.000000
vn 0.958838 -0.283953 0.000000
vn 0.059036 -0.998256 0.000000
vn 0.000000 -1.000000 0.000000
vn 0.000000 -1.000000 0.000000
vn 0.059036 -0.998256 0.000000
vn 0.176404 -0.984318 0.000000
vn 0.176404 -0.984318 0.000000
vn 0.349135 -0.937073 0.000000
vn 0.349135 -0.937073 0.000000
vn 0.579986 -0.814627 0.000000
vn 0.579986 -0.814627 0.000000
vn 0.830616 -0.556845 0.000000
vn 0.830616 -0.556845 0.000000
vn 0.000000 0.000000 -1.000000
vn 0.000000 0.000000 -1.000000
vn 0.000000 0.000000 -1.000000
vn 0.000000 -1.000000 0.000000
vn 0.000000 -1.000000 0.000000
vn 0.000000 -1.000000 0.000000
vn 0.000000 -1.000000 0.000000
vn 0.000000 0.000000 -1.000000
vn 0.000000 0.000000 -1.000000
vn 0.000000 0.000000 -1.000000
vn 0.000000 0.000000 -1.000000
vn 0.000000 0.000000 -1.000000
vn 0.000000 0.000000 -1.000000
vn 0.000000 0.000000 -1.000000
vn 0.000000 0.000000 -1.000000
vn 0.000000 0.000000 -1.000000
vn 0.000000 0.000000 -1.000000
vn 0.000000 0.000000 -1.000000
vn 0.000000 0.000000 -1.000000
vn 0.000000 0.000000 -1.000000
vn 0.000000 0.000000 -1.000000
vn 0.000000 0.000000 -1.000000
vn 0.000000 0.000000 -1.000000
vn -0.962133 0.272580 0.000000
vn -0.937654 0.347570 0.000000
vn -0.937602 0.347710 0.000000
vn -0.962133 0.272580 0.000000
vn -0.059892 0.998205 0.000000
vn 0.000000 1.000000 0.000000
vn 0.000000 1.000000 0.000000
vn -0.059892 0.998205 0.000000
vn -0.177153 0.984183 0.000000
vn -0.177153 0.984183 0.000000
vn -0.351123 0.936329 0.000000
vn -0.351123 0.936329 0.000000
vn -0.582519 0.812817 0.000000
vn -0.582519 0.812817 0.000000
vn -0.828443 0.560074 0.000000
vn -0.828443 0.560074 0.000000
vn 1.000000 0.000000 0.000000
vn 1.000000 0.000000 0.000000
vn 1.000000 0.000000 0.000000
vn 1.000000 0.000000 0.000000
vn 0.000000 0.000000 -1.000000
s off
g bottom_side
usemtl initialShadingGroup
f 4/1/1 17/2/2 5/3/3
f 3/4/4 2/5/5 7/6/6
f 4/1/7 3/4/8 7/6/9 9/7/10
f 4/1/11 9/7/12 11/8/13
f 4/1/14 11/8/15 13/9/16
f 4/1/17 13/9/18 15/10/19
f 4/1/20 15/10/21 17/2/22
f 21/31/23 22/32/24 68/57/25 69/33/26
s 1
f 72/58/27 73/112/28 46/104/29 45/39/30
s off
f 23/40/31 74/41/32 71/42/33 24/43/34
f 25/11/35 28/12/36 27/13/37 26/14/38
f 70/34/39 67/114/40 25/36/41 26/37/42
f 8/15/43 30/16/44 29/17/45 1/18/46
f 10/19/47 31/20/48 30/16/49 8/15/50
f 12/21/51 32/22/52 31/20/53 10/19/54
f 14/23/55 33/24/56 32/22/57 12/21/58
f 16/25/59 34/26/60 33/24/61 14/23/62
f 18/27/63 35/28/64 34/26/65 16/25/66
f 6/29/67 20/30/68 35/28/69 18/27/70
s 2
f 47/70/71 48/44/72 62/52/73 61/82/74
f 48/44/72 47/70/71 50/45/75 49/46/76
f 52/47/77 51/71/78 53/74/79 54/48/80
f 54/48/80 53/74/79 55/76/81 56/49/82
f 56/49/82 55/76/81 57/78/83 58/50/84
f 58/50/84 57/78/83 59/80/85 60/51/86
f 60/51/86 59/80/85 61/82/74 62/52/73
s off
f 64/53/87 63/83/88 66/108/89 65/110/90
f 65/54/91 66/55/92 76/56/93 75/87/94
f 68/57/95 67/35/96 70/113/97 69/33/98
f 72/111/99 71/42/100 74/41/101 73/38/102
s 4
f 78/59/103 77/60/104 80/61/105 79/88/106
f 79/88/106 80/61/105 92/67/107 91/94/108
f 81/90/109 82/62/110 84/63/111 83/89/112
f 82/62/110 81/90/109 85/91/113 86/64/114
f 86/64/114 85/91/113 87/92/115 88/65/116
f 88/65/116 87/92/115 89/93/117 90/66/118
f 90/66/118 89/93/117 91/94/108 92/67/107
s 6
f 36/68/119 37/69/120 50/45/121 47/70/122
f 53/74/123 51/71/124 38/72/125 39/73/126
f 39/73/126 40/75/127 55/76/128 53/74/123
f 40/75/127 41/77/129 57/78/130 55/76/128
f 41/77/129 42/79/131 59/80/132 57/78/130
f 42/79/131 43/81/133 61/82/134 59/80/132
f 43/81/133 36/68/119 47/70/122 61/82/134
s 1
f 45/39/30 66/106/135 63/107/136 19/84/137
s off
f 3/85/138 4/86/139 65/54/140 75/87/141
s 8
f 78/59/142 79/88/143 48/44/144 49/46/145
f 81/90/146 83/89/147 52/47/148 54/48/149
f 85/91/150 81/90/146 54/48/149 56/49/151
f 87/92/152 85/91/150 56/49/151 58/50/153
f 89/93/154 87/92/152 58/50/153 60/51/155
f 91/94/156 89/93/154 60/51/155 62/52/157
f 79/88/143 91/94/156 62/52/157 48/44/144
s 10
f 5/95/158 17/96/159 80/61/160 77/60/161
f 7/98/162 2/97/163 84/63/164 82/62/165
f 9/99/166 7/98/162 82/62/165 86/64/167
f 11/100/168 9/99/166 86/64/167 88/65/169
f 13/101/170 11/100/168 88/65/169 90/66/171
f 15/102/172 13/101/170 90/66/171 92/67/173
f 17/96/159 15/102/172 92/67/173 80/61/160
s off
f 64/53/174 65/110/175 4/109/176 44/103/177
s 1
f 45/39/30 46/104/29 76/105/178 66/106/135
