# This file uses centimeters as units for non-parametric coordinates.

mtllib passable_platform_small.mtl
g default
v -1.535628 -0.035207 1.000000
v -1.535628 0.264794 1.000000
v -1.535628 0.264794 -1.000000
v -1.535628 -0.035207 -1.000000
v -0.732186 0.264794 1.000000
v -0.732186 0.264794 -1.000000
v -0.987137 -0.035207 -1.000000
v -0.987137 -0.035207 1.000000
v -0.732186 -0.162370 -1.000000
v -0.732186 -0.162370 1.000000
v -1.535628 0.191900 1.000000
v -1.535628 0.191900 -1.000000
v -0.732186 0.191900 -1.000000
v -0.732186 0.191900 1.000000
v -1.535628 0.037687 1.000000
v -1.535628 0.037687 -1.000000
v -0.732186 0.037687 -1.000000
v -0.732186 0.037687 1.000000
v -1.435628 0.037687 0.950000
v -1.435628 0.037687 -0.950000
v -1.435628 0.191900 0.950000
v -1.435628 0.191900 -0.950000
v -0.732186 0.191900 -0.950000
v -0.732186 0.037687 -0.950000
v -0.732186 0.037687 0.950000
v -0.732186 0.191900 0.950000
v 1.535628 -0.035207 1.000000
v 1.535628 0.264794 1.000000
v 1.535628 0.264794 -1.000000
v 1.535628 -0.035207 -1.000000
v 0.732186 0.264794 1.000000
v 0.732186 0.264794 -1.000000
v 0.987137 -0.035207 -1.000000
v 0.987137 -0.035207 1.000000
v 0.732186 -0.162370 -1.000000
v 0.732186 -0.162370 1.000000
v 1.535628 0.191900 1.000000
v 1.535628 0.191900 -1.000000
v 0.732186 0.191900 -1.000000
v 0.732186 0.191900 1.000000
v 1.535628 0.037687 1.000000
v 1.535628 0.037687 -1.000000
v 0.732186 0.037687 -1.000000
v 0.732186 0.037687 1.000000
v 1.435628 0.037687 0.950000
v 1.435628 0.037687 -0.950000
v 1.435628 0.191900 0.950000
v 1.435628 0.191900 -0.950000
v 0.732186 0.191900 -0.950000
v 0.732186 0.037687 -0.950000
v 0.732186 0.037687 0.950000
v 0.732186 0.191900 0.950000
vt 0.982934 0.371617
vt 0.990129 0.371617
vt 0.982933 0.569038
vt 0.990129 0.569038
vt 0.679769 0.843286
vt 0.672574 0.638670
vt 0.679769 0.638670
vt 0.679769 0.836091
vt 0.601782 0.900753
vt 1.000000 0.900753
vt 0.000000 0.890881
vt 0.601782 0.933074
vt 0.666660 0.371617
vt 0.673856 0.371617
vt 0.673856 0.569038
vt 0.666660 0.569038
vt 0.990129 0.836091
vt 0.982934 0.836091
vt 0.982934 0.638670
vt 0.982934 0.631475
vt 1.000000 0.858560
vt 1.000000 0.890881
vt 0.601782 0.890881
vt 0.601782 0.858560
vt 0.759077 0.638670
vt 0.759077 0.836091
vt 0.903626 0.638670
vt 0.903626 0.836091
vt 0.928792 0.371617
vt 0.928792 0.569038
vt 0.900669 0.371617
vt 0.900669 0.569038
vt 0.756120 0.371617
vt 0.756120 0.569038
vt 0.727998 0.371617
vt 0.727997 0.569038
vt 0.970106 0.346934
vt 1.000000 0.564102
vt 0.900669 0.351870
vt 0.900669 0.346934
vt 0.900669 0.588785
vt 0.900669 0.593721
vt 0.756121 0.351870
vt 0.756121 0.346934
vt 0.756120 0.593721
vt 0.756120 0.588785
vt 0.676813 0.351869
vt 0.686684 0.346934
vt 0.656789 0.564102
vt 0.689640 0.848221
vt 0.662703 0.643606
vt 0.759077 0.843286
vt 0.759077 0.848221
vt 0.759077 0.631475
vt 0.759077 0.626539
vt 0.903626 0.843286
vt 0.903626 0.848221
vt 0.903626 0.626539
vt 0.903626 0.631475
vt 0.973063 0.848221
vt 1.000000 0.643606
vt 0.979977 0.359065
vt 0.925835 0.359065
vt 0.730954 0.359065
vt 0.676813 0.359065
vt 0.925835 0.581590
vt 0.979977 0.581590
vt 0.730954 0.581590
vt 0.676813 0.581590
vt 0.454349 0.933074
vt 0.454349 0.900753
vt 0.147434 0.933074
vt 0.147434 0.900753
vt 0.000000 0.933074
vt 0.000001 0.900753
vt 0.147433 0.890881
vt 0.147433 0.858560
vt 0.454349 0.858560
vt 0.454349 0.890881
vt 0.990129 0.638670
vt 0.973063 0.626539
vt 0.982934 0.843286
vt 1.000000 0.831155
vt 0.672574 0.836091
vt 0.662703 0.831155
vt 0.679769 0.631475
vt 0.689640 0.626539
vt 0.000000 0.858560
vt 1.000000 0.933074
vt 0.676812 0.588785
vt 0.686683 0.593721
vt 0.656790 0.376553
vt 0.979977 0.588785
vt 0.970106 0.593721
vt 0.979977 0.351870
vt 1.000000 0.376553
vn 0.000000 0.000000 1.000000
vn 0.000000 0.000000 1.000000
vn 0.000000 0.000000 1.000000
vn 0.000000 0.000000 1.000000
vn 0.000000 1.000000 0.000000
vn 0.000000 1.000000 0.000000
vn 0.000000 1.000000 0.000000
vn 0.000000 1.000000 0.000000
vn 0.000000 0.000000 -1.000000
vn 0.000000 0.000000 -1.000000
vn 0.000000 0.000000 -1.000000
vn 0.000000 0.000000 -1.000000
vn 0.000000 -1.000000 0.000000
vn 0.000000 -1.000000 0.000000
vn 0.000000 -1.000000 0.000000
vn 0.000000 -1.000000 0.000000
vn -1.000000 0.000000 0.000000
vn -1.000000 0.000000 0.000000
vn -1.000000 0.000000 0.000000
vn -1.000000 0.000000 0.000000
vn -0.000000 0.000000 -1.000000
vn -0.000000 0.000000 -1.000000
vn -0.000000 0.000000 -1.000000
vn -0.446336 -0.894865 0.000000
vn -0.446336 -0.894865 0.000000
vn -0.446336 -0.894865 0.000000
vn -0.446336 -0.894865 0.000000
vn 0.000000 0.000000 1.000000
vn 0.000000 0.000000 1.000000
vn 0.000000 0.000000 1.000000
vn 0.000000 1.000000 0.000000
vn 0.000000 1.000000 0.000000
vn 0.000000 1.000000 0.000000
vn 0.000000 1.000000 0.000000
vn 0.000000 0.000000 -1.000000
vn 0.000000 0.000000 -1.000000
vn 0.000000 0.000000 -1.000000
vn 0.000000 0.000000 -1.000000
vn 0.000000 0.000000 1.000000
vn 0.000000 0.000000 1.000000
vn 0.000000 0.000000 1.000000
vn 0.000000 0.000000 1.000000
vn -1.000000 0.000000 0.000000
vn -1.000000 0.000000 0.000000
vn -1.000000 0.000000 0.000000
vn -1.000000 0.000000 0.000000
vn 0.000000 0.000000 -1.000000
vn 0.000000 0.000000 -1.000000
vn 0.000000 0.000000 -1.000000
vn 0.000000 0.000000 -1.000000
vn 0.000000 0.000000 -1.000000
vn 0.000000 0.000000 -1.000000
vn 0.000000 0.000000 -1.000000
vn 0.000000 0.000000 -1.000000
vn 0.000000 0.000000 1.000000
vn 0.000000 0.000000 1.000000
vn 0.000000 0.000000 1.000000
vn 0.000000 0.000000 1.000000
vn 0.000000 0.000000 1.000000
vn 0.000000 0.000000 1.000000
vn 0.000000 0.000000 1.000000
vn 0.000000 0.000000 1.000000
vn -1.000000 0.000000 0.000000
vn -1.000000 0.000000 0.000000
vn -1.000000 0.000000 0.000000
vn -1.000000 0.000000 0.000000
vn 0.000000 0.000000 -1.000000
vn 0.000000 0.000000 -1.000000
vn 0.000000 0.000000 -1.000000
vn 0.000000 0.000000 -1.000000
vn 0.000000 0.000000 -1.000000
vn 0.000000 0.000000 -1.000000
vn 0.000000 0.000000 -1.000000
vn 0.000000 0.000000 -1.000000
vn 0.000000 0.000000 1.000000
vn 0.000000 0.000000 1.000000
vn 0.000000 0.000000 1.000000
vn 0.000000 0.000000 1.000000
vn 0.000000 0.000000 1.000000
vn 0.000000 0.000000 1.000000
vn 0.000000 0.000000 1.000000
vn 0.000000 0.000000 1.000000
vn -0.000000 1.000000 -0.000000
vn -0.000000 1.000000 -0.000000
vn 0.000000 1.000000 0.000000
vn 0.000000 1.000000 0.000000
vn 0.000000 -1.000000 0.000000
vn 0.000000 -1.000000 -0.000000
vn 0.000000 -1.000000 -0.000000
vn 0.000000 -1.000000 0.000000
vn 0.000000 1.000000 0.000000
vn 0.000000 1.000000 0.000000
vn 0.000000 -1.000000 -0.000000
vn 0.000000 -1.000000 -0.000000
vn 0.000000 1.000000 0.000000
vn 0.000000 1.000000 0.000000
vn -0.000000 -1.000000 0.000000
vn -0.000000 -1.000000 0.000000
vn -0.000000 1.000000 -0.000000
vn -0.000000 1.000000 -0.000000
vn 0.000000 1.000000 -0.000000
vn 0.000000 1.000000 -0.000000
vn 0.000000 -1.000000 0.000000
vn 0.000000 -1.000000 0.000000
vn -0.000000 -1.000000 0.000000
vn -0.000000 -1.000000 0.000000
vn 0.000000 -1.000000 0.000000
vn 0.000000 -1.000000 0.000000
vn 0.000000 -1.000000 0.000000
vn 0.000000 -1.000000 0.000000
vn 0.000000 0.000000 1.000000
vn 0.000000 0.000000 1.000000
vn 0.000000 0.000000 1.000000
vn 0.000000 0.000000 1.000000
vn 0.000000 1.000000 0.000000
vn 0.000000 1.000000 0.000000
vn 0.000000 1.000000 0.000000
vn 0.000000 1.000000 0.000000
vn 0.000000 0.000000 -1.000000
vn 0.000000 0.000000 -1.000000
vn 0.000000 0.000000 -1.000000
vn 0.000000 0.000000 -1.000000
vn 0.000000 0.000000 -1.000000
vn 0.000000 0.000000 -1.000000
vn 0.000000 0.000000 -1.000000
vn -0.000000 0.000000 1.000000
vn -0.000000 0.000000 1.000000
vn -0.000000 0.000000 1.000000
vn 1.000000 0.000000 0.000000
vn 1.000000 0.000000 0.000000
vn 1.000000 0.000000 0.000000
vn 1.000000 0.000000 0.000000
vn 0.000000 0.000000 -1.000000
vn 0.000000 0.000000 -1.000000
vn 0.000000 0.000000 -1.000000
vn 0.000000 0.000000 -1.000000
vn 0.000000 0.000000 1.000000
vn 0.000000 0.000000 1.000000
vn 0.000000 0.000000 1.000000
vn 0.000000 0.000000 1.000000
vn 1.000000 0.000000 0.000000
vn 1.000000 0.000000 0.000000
vn 1.000000 0.000000 0.000000
vn 1.000000 0.000000 0.000000
vn -0.000000 0.000000 -1.000000
vn -0.000000 0.000000 -1.000000
vn -0.000000 0.000000 -1.000000
vn -0.000000 0.000000 -1.000000
vn -0.000000 0.000000 1.000000
vn -0.000000 0.000000 1.000000
vn -0.000000 0.000000 1.000000
vn -0.000000 0.000000 1.000000
vn -0.000000 -1.000000 0.000000
vn -0.000000 -1.000000 0.000000
vn -0.000000 -1.000000 0.000000
vn -0.000000 -1.000000 0.000000
vn 0.000000 1.000000 0.000000
vn 0.000000 1.000000 0.000000
vn 0.000000 1.000000 -0.000000
vn 0.000000 1.000000 -0.000000
vn 1.000000 0.000000 0.000000
vn 1.000000 0.000000 0.000000
vn 1.000000 0.000000 0.000000
vn 1.000000 0.000000 0.000000
vn 0.000000 -1.000000 0.000000
vn 0.000000 -1.000000 0.000000
vn 0.000000 -1.000000 0.000000
vn 0.000000 -1.000000 0.000000
vn 0.446336 -0.894865 0.000000
vn 0.446336 -0.894865 0.000000
vn 0.446336 -0.894865 0.000000
vn 0.446336 -0.894865 0.000000
s off
g small_size_platform
usemtl initialShadingGroup
f 18/39/1 15/95/2 1/62/3 8/63/4
f 2/7/5 5/25/6 6/26/7 3/8/8
f 17/41/9 7/66/10 4/67/11 16/93/12
f 8/29/13 1/1/14 4/3/15 7/30/16
f 1/1/17 15/2/18 16/4/19 4/3/20
f 17/41/21 9/32/22 7/66/23
f 10/31/24 8/29/25 7/30/26 9/32/27
f 18/39/28 8/63/29 10/31/30
f 6/26/31 5/25/32 31/27/33 32/28/34
f 9/32/35 17/41/36 43/46/37 35/34/38
f 18/39/39 10/31/40 36/33/41 44/43/42
f 12/84/43 11/6/44 2/7/45 3/8/46
f 6/26/47 13/52/48 12/5/49 3/8/50
f 13/52/51 6/26/52 32/28/53 39/56/54
f 5/25/55 14/54/56 40/59/57 31/27/58
f 2/7/59 11/86/60 14/54/61 5/25/62
f 20/9/63 19/10/64 21/89/65 22/12/66
f 23/70/67 24/71/68 20/9/69 22/12/70
f 24/71/71 23/70/72 49/72/73 50/73/74
f 26/76/75 25/77/76 51/78/77 52/79/78
f 26/76/79 21/11/80 19/88/81 25/77/82
s 1
f 15/2/83 19/96/84 20/38/85 16/4/86
s 2
f 11/6/87 12/84/88 22/85/89 21/51/90
s 1
f 17/41/91 16/93/86 20/94/85 24/42/92
s 2
f 12/5/88 13/52/93 23/53/94 22/50/89
s 1
f 17/41/91 24/42/92 50/45/95 43/46/96
s 2
f 23/53/94 13/52/93 39/56/97 49/57/98
s 1
f 25/40/99 18/39/100 44/43/101 51/44/102
s 2
f 14/54/103 26/55/104 52/58/105 40/59/106
f 14/54/103 11/86/87 21/87/90 26/55/104
s 1
f 15/95/83 18/39/100 25/40/99 19/37/84
s off
f 10/31/107 9/32/108 35/34/109 36/33/110
f 44/43/111 34/64/112 27/65/113 41/47/114
f 28/19/115 29/18/116 32/28/117 31/27/118
f 43/46/119 42/90/120 30/69/121 33/68/122
f 43/46/123 33/68/124 35/34/125
f 44/43/126 36/33/127 34/64/128
f 38/17/129 29/18/130 28/19/131 37/80/132
f 32/28/133 29/18/134 38/82/135 39/56/136
f 28/19/137 31/27/138 40/59/139 37/20/140
f 46/21/141 48/22/142 47/23/143 45/24/144
f 49/72/145 48/74/146 46/75/147 50/73/148
f 52/79/149 51/78/150 45/24/151 47/23/152
s 2
f 37/80/153 47/61/154 48/83/155 38/17/156
s 1
f 43/46/96 50/45/95 46/91/157 42/90/158
s 2
f 38/82/156 48/60/155 49/57/98 39/56/97
f 40/59/106 52/58/105 47/81/154 37/20/153
s 1
f 41/47/159 45/48/160 51/44/102 44/43/101
f 41/13/159 42/16/158 46/49/157 45/92/160
s off
f 27/14/161 30/15/162 42/16/163 41/13/164
f 34/35/165 33/36/166 30/15/167 27/14/168
f 36/33/169 35/34/170 33/36/171 34/35/172
