# This file uses centimeters as units for non-parametric coordinates.

mtllib parapet.mtl
g default
v -1.500000 -1.500000 1.000000
v 1.500000 -1.500000 1.000000
v -1.500000 1.500000 1.000000
v 1.500000 1.500000 1.000000
v -1.500000 1.500000 -1.000000
v 1.500000 1.500000 -1.000000
v -1.500000 -1.500000 -1.000000
v 1.500000 -1.500000 -1.000000
v 0.000000 -2.500000 -1.000000
v 0.000000 -2.500000 1.000000
v 0.000000 3.500000 0.000000
v -1.655371 1.500000 1.170013
v -1.708048 1.602169 1.233590
v 1.708048 1.602169 1.233590
v 1.655371 1.500000 1.170013
v -1.708048 1.602169 -1.233590
v -1.655371 1.500000 -1.170013
v 1.655371 1.500000 -1.170013
v 1.708048 1.602169 -1.233590
v -3.000000 -1.000000 0.900000
v -1.500000 -1.000000 0.900000
v -3.000000 0.000000 0.900000
v -1.500000 0.000000 0.900000
v -3.000000 0.000000 -0.100000
v -1.500000 0.000000 -0.100000
v -3.000000 -1.000000 -0.100000
v -1.500000 -1.000000 -0.100000
vt 0.630097 0.729958
vt 0.900138 0.729959
vt 0.450069 0.729958
vt 0.180028 0.729958
vt 0.132197 0.000000
vt 0.452215 0.033728
vt 0.864979 0.490153
vt 0.765118 0.639944
vt 0.532713 0.254153
vt 0.416224 0.015304
vt 0.528982 0.213886
vt 0.000000 0.193884
vt 0.354735 0.476030
vt 0.101651 0.026501
vt 0.522390 0.223702
vt 0.012044 0.223702
vt 0.113469 0.026135
vt 0.420965 0.026136
vt 0.267217 0.229883
vt 1.000000 0.453250
vt 0.773375 0.453250
vt 0.773375 0.302167
vt 1.000000 0.302167
vt 0.773375 0.151083
vt 1.000000 0.151083
vt 0.773375 0.000000
vt 1.000000 0.000000
vt 0.000000 0.729958
vt 0.000000 0.999999
vt 0.315049 0.639944
vt 1.000000 0.580166
vt 0.414910 0.490152
vt 0.549931 0.580166
vt 0.900138 1.000000
vt 0.180028 1.000000
vt 0.630097 1.000000
vt 0.450069 1.000000
vt 0.082220 0.033728
vt 0.118211 0.015304
vt 0.375321 0.473585
vt 0.005453 0.213885
vt 0.432784 0.026501
vt 0.402238 0.000000
vt 0.534434 0.193884
vt 0.528428 0.233869
vt 0.343169 0.473569
vn 0.000000 0.000000 1.000000
vn 0.000000 0.000000 1.000000
vn 0.000000 0.000000 1.000000
vn 0.000000 0.000000 1.000000
vn 0.000000 0.000000 -1.000000
vn 0.000000 0.000000 -1.000000
vn 0.000000 0.000000 -1.000000
vn 0.000000 0.000000 -1.000000
vn 1.000000 0.000000 0.000000
vn 1.000000 0.000000 0.000000
vn 1.000000 0.000000 0.000000
vn 1.000000 0.000000 0.000000
vn -1.000000 0.000000 0.000000
vn -1.000000 0.000000 0.000000
vn -1.000000 0.000000 0.000000
vn -1.000000 0.000000 0.000000
vn 0.000000 0.000000 -1.000000
vn 0.554700 -0.832050 0.000000
vn 0.554700 -0.832050 0.000000
vn 0.554700 -0.832050 0.000000
vn 0.554700 -0.832050 0.000000
vn 0.000000 0.000000 1.000000
vn -0.554700 -0.832050 0.000000
vn -0.554700 -0.832050 0.000000
vn -0.554700 -0.832050 0.000000
vn -0.554700 -0.832050 0.000000
vn -0.888816 -0.458265 0.000000
vn -0.888816 -0.458265 0.000000
vn -0.888816 -0.458265 0.000000
vn -0.888816 -0.458265 0.000000
vn 0.000000 -0.528334 0.849037
vn 0.000000 -0.528334 0.849037
vn 0.000000 -0.528334 0.849037
vn 0.000000 -0.528334 0.849037
vn 0.888816 -0.458264 0.000000
vn 0.888816 -0.458264 0.000000
vn 0.888816 -0.458264 0.000000
vn 0.888816 -0.458264 0.000000
vn 0.000000 -0.528334 -0.849037
vn 0.000000 -0.528334 -0.849037
vn 0.000000 -0.528334 -0.849037
vn 0.000000 -0.528334 -0.849037
vn 0.000000 -1.000000 0.000000
vn 0.000000 -1.000000 0.000000
vn 0.000000 -1.000000 0.000000
vn 0.000000 -1.000000 0.000000
vn 0.000000 -1.000000 0.000000
vn 0.000000 -1.000000 0.000000
vn 0.000000 -1.000000 0.000000
vn 0.000000 -1.000000 0.000000
vn -0.743294 0.668965 0.000000
vn -0.743294 0.668965 0.000000
vn -0.743294 0.668965 0.000000
vn 0.000000 0.544989 0.838444
vn 0.000000 0.544989 0.838444
vn 0.000000 0.544989 0.838444
vn 0.743294 0.668965 0.000000
vn 0.743294 0.668965 0.000000
vn 0.743294 0.668965 0.000000
vn 0.000000 0.544989 -0.838444
vn 0.000000 0.544989 -0.838444
vn 0.000000 0.544989 -0.838444
vn 0.000000 0.000000 1.000000
vn 0.000000 0.000000 1.000000
vn 0.000000 0.000000 1.000000
vn 0.000000 0.000000 1.000000
vn 0.000000 1.000000 0.000000
vn 0.000000 1.000000 0.000000
vn 0.000000 1.000000 0.000000
vn 0.000000 1.000000 0.000000
vn 0.000000 0.000000 -1.000000
vn 0.000000 0.000000 -1.000000
vn 0.000000 0.000000 -1.000000
vn 0.000000 0.000000 -1.000000
s 1
g pCube3
usemtl initialShadingGroup
f 3/36/1 1/1/2 2/2/3 4/34/4
s 2
f 8/4/5 7/3/6 5/37/7 6/35/8
s off
f 4/29/9 2/28/10 8/4/11 6/35/12
f 1/1/13 3/36/14 5/37/15 7/3/16
s 2
f 9/30/17 7/3/6 8/4/5
s off
f 2/2/18 10/8/19 9/7/20 8/31/21
s 1
f 1/1/2 10/8/22 2/2/3
s off
f 10/32/23 1/33/24 7/3/25 9/30/26
f 12/11/27 13/15/28 16/18/29 17/42/30
f 13/15/31 12/45/32 15/13/33 14/46/34
f 14/16/35 15/41/36 18/14/37 19/17/38
f 17/10/39 16/18/40 19/17/41 18/39/42
s 3
f 3/44/43 12/11/44 17/42/45 5/6/46
f 12/45/44 3/9/43 4/40/47 15/13/48
f 15/41/48 4/12/47 6/38/49 18/14/50
f 5/43/46 17/10/45 18/39/50 6/5/49
s off
f 13/15/51 11/19/52 16/18/53
f 11/19/54 13/15/55 14/46/56
f 11/19/57 14/16/58 19/17/59
f 16/18/60 11/19/61 19/17/62
f 20/20/63 21/21/64 23/22/65 22/23/66
f 22/23/67 23/22/68 25/24/69 24/25/70
f 24/25/71 25/24/72 27/26/73 26/27/74
