# This file uses centimeters as units for non-parametric coordinates.

mtllib long_platform.mtl
g default
v -12.000000 -0.750000 1.500000
v 12.000000 -0.750000 1.500000
v -12.000000 -0.750000 -1.500000
v 12.000000 -0.750000 -1.500000
v 12.000000 0.375000 1.500000
v -12.000000 0.375000 1.500000
v -12.000000 0.375000 -1.500000
v 12.000000 0.375000 -1.500000
v -11.800000 -0.375000 1.300000
v -11.800000 0.375000 1.300000
v 11.800000 -0.375000 1.300000
v 11.800000 0.375000 1.300000
v -11.800000 -0.375000 -1.300000
v -11.800000 0.375000 -1.300000
v 11.800000 -0.375000 -1.300000
v 11.800000 0.375000 -1.300000
v -11.962503 0.750000 1.462504
v -12.000000 0.712504 1.500000
v 11.962503 0.750000 1.462504
v 12.000000 0.712504 1.500000
v -11.962503 0.750000 -1.462504
v -12.000000 0.712504 -1.500000
v 11.962503 0.750000 -1.462504
v 12.000000 0.712504 -1.500000
v 12.000000 -0.412496 1.500000
v 11.962503 -0.375000 1.462504
v -12.000000 -0.412496 1.500000
v -11.962503 -0.375000 1.462504
v -12.000000 -0.412496 -1.500000
v -11.962503 -0.375000 -1.462504
v 12.000000 -0.412496 -1.500000
v 11.962503 -0.375000 -1.462504
vt 0.022028 0.977971
vt 0.977972 0.858479
vt 0.022028 0.858478
vt 0.007966 0.141522
vt 0.977972 0.155583
vt 0.908451 0.452077
vt 0.000000 0.029995
vt 0.000000 0.133556
vt 0.970006 1.000000
vt 0.029994 0.163550
vt 0.970006 0.163549
vt 0.000000 0.970005
vt 1.000000 0.133555
vt 0.023522 0.023522
vt 0.022028 0.142140
vt 0.023522 0.140028
vt 0.008585 0.977971
vt 0.993527 0.976478
vt 0.977972 0.991415
vt 0.023521 0.993527
vt 0.991415 0.858479
vt 0.976478 0.023521
vt 0.976478 0.140027
vt 0.022028 0.991414
vt 0.977972 0.977972
vt 0.022028 0.845035
vt 0.991415 0.977972
vt 0.992034 0.022028
vt 0.021409 0.022029
vt 0.022028 0.007967
vt 0.021409 0.141522
vt 0.978591 0.141521
vt 0.022028 0.155583
vt 0.992034 0.141521
vt 0.977972 0.021409
vt 0.006473 0.859972
vt 1.000000 0.866445
vt 0.976478 0.842924
vt 0.976478 0.993527
vt 0.077463 0.465669
vt 0.006473 0.976478
vt 0.029994 0.836450
vt 0.077463 0.492078
vt 1.000000 0.452077
vt 0.970006 0.000000
vt 0.908451 0.492077
vt 0.077462 0.452077
vt 0.022028 0.021410
vt 0.007966 0.022029
vt 0.977972 0.007966
vt 0.978591 0.022028
vt 0.977972 0.142140
vt 1.000000 0.029994
vt 0.029994 0.000001
vt 1.000000 0.425669
vt 0.029994 0.999999
vt 0.908451 0.425669
vt 0.908451 0.465669
vt 1.000000 0.970006
vt 1.000000 0.465669
vt 0.023521 0.842923
vt 0.000000 0.866444
vt 0.008585 0.858478
vt 0.970006 0.836451
vt 0.993527 0.859972
vt 0.977972 0.845036
vt 0.077462 0.425669
vt 1.000000 0.492077
vn 0.000000 -1.000000 0.000000
vn 0.000000 -1.000000 0.000000
vn 0.000000 -1.000000 0.000000
vn 0.000000 -1.000000 0.000000
vn 0.000000 0.000000 1.000000
vn 0.000000 0.000000 1.000000
vn 0.000000 0.000000 1.000000
vn 0.000000 0.000000 1.000000
vn -1.000000 0.000000 0.000000
vn -1.000000 0.000000 0.000000
vn -1.000000 0.000000 0.000000
vn -1.000000 0.000000 0.000000
vn 0.000000 0.000000 -1.000000
vn 0.000000 0.000000 -1.000000
vn 0.000000 0.000000 -1.000000
vn 0.000000 0.000000 -1.000000
vn 1.000000 0.000000 0.000000
vn 1.000000 0.000000 0.000000
vn 1.000000 0.000000 0.000000
vn 1.000000 0.000000 0.000000
vn 0.000000 -1.000000 -0.000000
vn 0.000000 -1.000000 -0.000000
vn 0.000000 -1.000000 -0.000000
vn 0.000000 -1.000000 -0.000000
vn 0.000000 -1.000000 0.000000
vn 0.000000 -1.000000 0.000000
vn 0.000000 -1.000000 0.000000
vn 0.000000 -1.000000 0.000000
vn 0.000000 0.707106 0.707108
vn 0.000000 0.707106 0.707108
vn 0.000000 0.707106 0.707108
vn 0.000000 0.707106 0.707108
vn -0.707115 0.707098 0.000000
vn -0.707115 0.707098 0.000000
vn -0.707115 0.707098 0.000000
vn -0.707115 0.707098 0.000000
vn 0.707115 0.707098 0.000000
vn 0.707115 0.707098 0.000000
vn 0.707115 0.707098 0.000000
vn 0.707115 0.707098 0.000000
vn 0.000000 0.707106 -0.707108
vn 0.000000 0.707106 -0.707108
vn 0.000000 0.707106 -0.707108
vn 0.000000 0.707106 -0.707108
vn 0.000000 0.707106 0.707108
vn 0.000000 0.707106 0.707108
vn 0.000000 0.707106 0.707108
vn 0.000000 0.707106 0.707108
vn 0.707116 0.707098 0.000000
vn 0.707116 0.707098 0.000000
vn 0.707116 0.707098 0.000000
vn 0.707116 0.707098 0.000000
vn -0.707116 0.707098 0.000000
vn -0.707116 0.707098 0.000000
vn -0.707116 0.707098 0.000000
vn -0.707116 0.707098 0.000000
vn 0.000000 0.707106 -0.707108
vn 0.000000 0.707106 -0.707108
vn 0.000000 0.707106 -0.707108
vn 0.000000 0.707106 -0.707108
vn 0.000000 0.000000 1.000000
vn 0.000000 0.000000 1.000000
vn 0.000000 0.000000 1.000000
vn 0.000000 0.000000 1.000000
vn 0.000000 1.000000 0.000000
vn 0.000000 1.000000 0.000000
vn 0.000000 1.000000 0.000000
vn 0.000000 1.000000 0.000000
vn 0.000000 0.000000 -1.000000
vn 0.000000 0.000000 -1.000000
vn 0.000000 0.000000 -1.000000
vn 0.000000 0.000000 -1.000000
vn 1.000000 0.000000 0.000000
vn 1.000000 0.000000 0.000000
vn 1.000000 0.000000 0.000000
vn 1.000000 0.000000 0.000000
vn -1.000000 0.000000 0.000000
vn -1.000000 0.000000 0.000000
vn -1.000000 0.000000 0.000000
vn -1.000000 0.000000 0.000000
vn 0.000000 0.000000 1.000000
vn 0.000000 0.000000 1.000000
vn 0.000000 0.000000 1.000000
vn 0.000000 0.000000 1.000000
vn -1.000000 0.000000 0.000000
vn -1.000000 0.000000 0.000000
vn -1.000000 0.000000 0.000000
vn -1.000000 0.000000 0.000000
vn 0.000000 0.000000 -1.000000
vn 0.000000 0.000000 -1.000000
vn 0.000000 0.000000 -1.000000
vn 0.000000 0.000000 -1.000000
vn 1.000000 0.000000 0.000000
vn 1.000000 0.000000 0.000000
vn 1.000000 0.000000 0.000000
vn 1.000000 0.000000 0.000000
vn 0.000000 1.000000 0.000000
vn 0.000000 1.000000 0.000000
vn 0.000000 1.000000 0.000000
vn 0.000000 1.000000 0.000000
vn 0.000000 1.000000 -0.000000
vn 0.000000 1.000000 -0.000000
vn 0.000000 1.000000 -0.000000
vn 0.000000 1.000000 -0.000000
s off
g long_24x1p5_lp
usemtl initialShadingGroup
f 3/25/1 4/1/2 2/3/3 1/2/4
f 10/47/5 9/67/6 11/57/7 12/6/8
f 13/58/9 9/60/10 10/68/11 14/46/12
f 15/40/13 13/58/14 14/46/15 16/43/16
f 12/6/17 11/57/18 15/55/19 16/44/20
s 1
f 5/50/21 6/30/22 10/54/23 12/45/24
f 6/49/22 7/4/25 14/8/26 10/7/23
f 7/33/25 8/5/27 16/11/28 14/10/26
f 8/34/27 5/28/21 12/53/24 16/13/28
s off
f 17/14/29 18/48/30 20/35/31 19/22/32
f 18/29/33 17/14/34 21/16/35 22/31/36
f 19/22/37 20/51/38 24/32/39 23/23/40
f 22/15/41 21/16/42 23/23/43 24/52/44
f 25/26/45 26/61/46 28/38/47 27/66/48
f 26/36/49 25/63/50 31/17/51 32/41/52
f 27/21/53 28/65/54 30/18/55 29/27/56
f 29/19/57 30/39/58 32/20/59 31/24/60
f 1/2/61 2/3/62 25/26/63 27/66/64
f 17/14/65 19/22/66 23/23/67 21/16/68
f 29/19/69 31/24/70 4/1/71 3/25/72
f 2/3/73 4/1/74 31/17/75 25/63/76
f 3/25/77 1/2/78 27/21/79 29/27/80
f 6/30/81 5/50/82 20/35/83 18/48/84
f 7/4/85 6/49/86 18/29/87 22/31/88
f 22/15/89 24/52/90 8/5/91 7/33/92
f 5/28/93 8/34/94 24/32/95 20/51/96
s 2
f 28/38/97 26/61/98 11/42/99 9/64/100
f 30/18/101 28/65/97 9/37/100 13/59/102
f 32/20/103 30/39/101 13/9/102 15/56/104
f 26/36/98 32/41/103 15/12/104 11/62/99
