# This file uses centimeters as units for non-parametric coordinates.

mtllib apartment_02_platform.mtl
g default
v 9.000000 -10.500000 -9.000000
v -9.000000 -10.500000 -9.000000
v 9.000000 9.500000 -9.000000
v -9.000000 9.500000 -9.000000
v 9.000000 9.500000 10.000000
v -9.000000 9.500000 10.000000
v 9.000000 -10.500000 10.000000
v -9.000000 -10.500000 10.000000
v -8.500000 9.500000 -8.500000
v 8.500000 9.500000 -8.500000
v 9.000000 9.500000 5.000000
v 8.500000 9.500000 5.000000
v -8.500000 9.500000 5.000000
v -9.000000 9.500000 5.000000
v -9.200000 9.900000 -9.200000
v 9.200000 9.900000 -9.200000
v -8.500000 9.900000 -8.500000
v 8.500000 9.900000 -8.500000
v 9.200000 9.900000 5.000000
v 8.500000 9.900000 5.000000
v -9.200000 9.900000 5.000000
v -8.500000 9.900000 5.000000
v -9.200000 9.500000 -9.200000
v 9.200000 9.500000 -9.200000
v 9.200000 9.500000 5.000000
v -9.200000 9.500000 5.000000
vt 1.000000 0.000022
vt 0.998433 0.001332
vt 0.258318 0.780739
vt 0.295788 0.782102
vt 0.692308 0.908326
vt 0.299145 0.908326
vt 0.000000 0.662162
vt 0.000000 0.337838
vt 1.000000 0.000022
vt 1.000000 0.780740
vt 0.258198 0.000000
vt 0.258198 0.780844
vt 0.711539 0.872001
vt 0.318376 0.872001
vt 1.000000 0.908326
vt 0.453409 0.780844
vt 0.090090 0.346847
vt 0.000000 0.872001
vt 0.090090 0.662162
vt 0.804820 0.780740
vt 0.696581 0.895505
vt 0.303419 0.895505
vt 0.288462 0.880548
vt 0.711539 0.880548
vt 1.000000 0.880548
vt 1.000000 0.895505
vt 0.000000 0.895505
vt 0.000000 0.880548
vt 0.696581 0.904052
vt 0.303419 0.904052
vt 1.000000 0.904052
vt 0.000000 0.904052
vt 1.000000 0.872001
vt 0.243243 0.000000
vt 0.243243 0.306306
vt 0.000000 0.306306
vt 0.681624 0.880548
vt 0.681624 0.872001
vt 0.318376 0.880548
vt 0.288462 0.872001
vt 0.700855 0.908326
vt 0.307692 0.908326
vt 0.000000 0.908326
vt 0.090090 0.337838
vt 1.000000 0.780813
vt 0.295789 0.001311
vt 0.258318 0.000000
vt 0.998433 0.782071
vt 0.090090 0.653153
vt 0.000000 0.000000
vn 0.000000 0.000000 -1.000000
vn 0.000000 0.000000 -1.000000
vn 0.000000 0.000000 -1.000000
vn 0.000000 0.000000 -1.000000
vn 0.000000 1.000000 0.000000
vn 0.000000 1.000000 0.000000
vn 0.000000 1.000000 0.000000
vn 0.000000 1.000000 0.000000
vn -1.000000 0.000000 0.000000
vn -1.000000 0.000000 0.000000
vn -1.000000 0.000000 0.000000
vn 1.000000 0.000000 0.000000
vn 1.000000 0.000000 0.000000
vn 1.000000 0.000000 0.000000
vn 0.000000 1.000000 0.000001
vn 0.000000 1.000000 0.000001
vn 0.000000 1.000000 0.000001
vn 0.000000 1.000000 0.000001
vn 1.000000 0.000000 0.000000
vn 1.000000 0.000000 0.000000
vn 1.000000 0.000000 0.000000
vn 1.000000 0.000000 0.000000
vn 0.000000 1.000000 0.000000
vn 0.000000 1.000000 0.000000
vn 0.000000 1.000000 0.000000
vn 0.000000 1.000000 0.000000
vn 0.000000 1.000000 0.000000
vn 0.000000 1.000000 0.000000
vn 0.000000 1.000000 0.000000
vn 0.000000 1.000000 0.000000
vn -1.000000 0.000000 0.000000
vn -1.000000 0.000000 0.000000
vn -1.000000 0.000000 0.000000
vn -1.000000 0.000000 0.000000
vn 0.000000 0.000000 -1.000000
vn 0.000000 0.000000 -1.000000
vn 0.000000 0.000000 -1.000000
vn 0.000000 0.000000 -1.000000
vn 1.000000 0.000000 0.000000
vn 1.000000 0.000000 0.000000
vn 1.000000 0.000000 0.000000
vn 1.000000 0.000000 0.000000
vn -1.000000 0.000000 0.000000
vn -1.000000 0.000000 0.000000
vn -1.000000 0.000000 0.000000
vn -1.000000 0.000000 0.000000
vn -1.000000 0.000000 0.000000
vn -1.000000 0.000000 0.000000
vn -1.000000 0.000000 0.000000
vn -1.000000 0.000000 0.000000
vn 1.000000 0.000000 0.000000
vn 1.000000 0.000000 0.000000
vn 1.000000 0.000000 0.000000
vn 1.000000 0.000000 0.000000
vn 0.000000 -1.000000 -0.000003
vn 0.000000 -1.000000 -0.000003
vn 0.000000 -1.000000 -0.000003
vn 0.000000 -1.000000 -0.000003
vn 0.000000 -1.000000 0.000000
vn 0.000000 -1.000000 0.000000
vn 0.000000 -1.000000 0.000000
vn 0.000000 -1.000000 0.000000
vn 0.000000 -1.000000 0.000000
vn 0.000000 -1.000000 0.000000
vn 0.000000 -1.000000 0.000000
vn 0.000000 -1.000000 0.000000
vn 0.000000 0.000000 1.000000
vn 0.000000 0.000000 1.000000
vn 0.000000 0.000000 1.000000
vn 0.000000 0.000000 1.000000
vn 0.000000 1.000000 0.000000
vn 0.000000 1.000000 0.000000
vn 0.000000 1.000000 0.000000
vn 0.000000 1.000000 0.000000
s off
g apartment_02_platform:Apartment02_platform_low
usemtl apartment_02_platform:initialShadingGroup
f 1/46/1 2/2/2 4/48/3 3/4/4
s 1
f 9/35/5 13/36/6 12/50/7 10/34/8
s off
f 8/9/9 6/10/10 14/20/11
f 7/11/12 11/16/13 5/12/14
f 16/21/15 15/22/16 17/39/17 18/37/18
f 7/11/19 1/1/20 3/45/21 11/16/22
f 20/25/23 19/26/24 16/21/25 18/24/26
f 15/22/27 21/27/28 22/28/29 17/23/30
f 2/47/31 8/9/32 14/20/33 4/3/34
f 24/29/35 23/30/36 15/22/37 16/21/38
f 25/31/39 24/29/40 16/21/41 19/26/42
f 10/13/43 12/33/44 20/25/45 18/24/46
f 23/30/47 26/32/48 21/27/49 15/22/50
f 13/18/51 9/40/52 17/23/53 22/28/54
f 3/5/55 4/42/56 23/30/57 24/29/58
f 11/15/59 3/41/60 24/29/61 25/31/62
f 4/6/63 14/43/64 26/32/65 23/30/66
f 9/14/67 10/38/68 18/37/69 17/39/70
s 1
f 13/49/6 5/8/71 11/44/72 12/17/7
f 6/7/73 5/8/71 13/49/6 14/19/74
