# This file uses centimeters as units for non-parametric coordinates.

mtllib house_3.mtl
g default
v -6.500000 0.000000 1.500000
v 6.500000 0.000000 1.500000
v -6.500000 21.500000 1.500000
v 6.500000 21.500000 1.500000
v -6.500000 21.500000 -1.500000
v 6.500000 21.500000 -1.500000
v -6.500000 20.500000 1.500000
v -6.500000 20.500000 -1.500000
v 6.500000 20.500000 -1.500000
v 6.500000 20.500000 1.500000
v 5.500001 20.500000 1.500000
v 5.500001 0.000000 1.500000
v 5.500001 20.500000 -1.500000
v 5.500001 21.500000 -1.500000
v 5.500001 21.500000 1.500000
v -5.500000 20.500000 1.500000
v -5.500000 0.000000 1.500000
v -5.500000 20.500000 -1.500000
v -5.500000 21.500000 -1.500000
v -5.500000 21.500000 1.500000
v 6.500000 7.500000 1.500000
v 5.500001 7.500000 1.500000
v -5.500000 7.500000 1.500000
v -6.500000 7.500000 1.500000
v -6.500000 7.500000 -1.500000
v -5.500000 7.500000 -1.500000
v 5.500001 7.500000 -1.500000
v 6.500000 7.500000 -1.500000
v -5.500000 8.000000 1.500000
v 5.500001 8.000000 1.500000
v 6.500000 8.000000 1.500000
v 6.500000 8.000000 -1.500000
v 5.500001 8.000000 -1.500000
v -5.500000 8.000000 -1.500000
v -6.500000 8.000000 -1.500000
v -6.500000 8.000000 1.500000
v -5.500000 2.500000 1.500000
v 5.500001 2.500000 1.500000
v 6.500000 2.500000 1.500000
v 6.500000 2.500000 -1.500000
v 5.500001 2.500000 -1.500000
v -5.500000 2.500000 -1.500000
v -6.500000 2.500000 -1.500000
v -6.500000 2.500000 1.500000
v -6.500000 17.000000 1.500000
v -6.500000 17.000000 -1.500000
v -5.500000 17.000000 -1.500000
v 5.500001 17.000000 -1.500000
v 6.500000 17.000000 -1.500000
v 6.500000 17.000000 1.500000
v 5.500001 17.000000 1.500000
v -5.500000 17.000000 1.500000
v -5.500000 11.500000 1.500000
v 5.500001 11.500000 1.500000
v 6.500000 11.500000 1.500000
v 6.500000 11.500000 -1.500000
v 5.500001 11.500000 -1.500000
v -5.500000 11.500000 -1.500000
v -6.500000 11.500000 -1.500000
v -6.500000 11.500000 1.500000
v -1.499999 8.000000 1.500000
v -1.499999 11.500000 1.500000
v -1.499999 17.000000 1.500000
v -1.499999 20.500000 1.500000
v -1.499999 21.500000 1.500000
v -1.499999 21.500000 -1.500000
v -1.499999 20.500000 -1.500000
v -1.499999 8.000000 -1.500000
v -1.499999 7.500000 -1.500000
v -1.499999 0.000000 1.500000
v -1.499999 2.500000 1.500000
v -1.499999 7.500000 1.500000
v 1.500000 8.000000 1.500000
v 1.500000 11.500000 1.500000
v 1.500000 17.000000 1.500000
v 1.500000 20.500000 1.500000
v 1.500000 21.500000 1.500000
v 1.500000 21.500000 -1.500000
v 1.500000 20.500000 -1.500000
v 1.500000 8.000000 -1.500000
v 1.500000 7.500000 -1.500000
v 1.500000 0.000000 1.500000
v 1.500000 2.500000 1.500000
v 1.500000 7.500000 1.500000
v 6.500000 21.500000 1.000000
v 5.500001 21.500000 1.000000
v 1.500000 21.500000 1.000000
v -1.499999 21.500000 1.000000
v -5.500000 21.500000 1.000000
v -6.500000 21.500000 1.000000
v -6.500000 20.500000 1.000000
v -6.500000 17.000000 1.000000
v -6.500000 11.500000 1.000000
v -6.500000 8.000000 1.000000
v -6.500000 7.500000 1.000000
v -6.500000 2.500000 1.000000
v -6.500000 0.000000 1.000000
v -5.500000 0.000000 1.000000
v -1.499999 0.000000 1.000000
v 1.500000 0.000000 1.000000
v 5.500001 0.000000 1.000000
v 6.500000 0.000000 1.000000
v 6.500000 2.500000 1.000000
v 6.500000 7.500000 1.000000
v 6.500000 8.000000 1.000000
v 6.500000 11.500000 1.000000
v 6.500000 17.000000 1.000000
v 6.500000 20.500000 1.000000
v -5.500000 7.500000 1.000000
v -1.499999 7.500000 1.000000
v -1.499999 2.500000 1.000000
v -5.500000 2.500000 1.000000
v -5.500000 17.000000 1.000000
v -1.499999 17.000000 1.000000
v -1.499999 11.500000 1.000000
v -5.500000 11.500000 1.000000
v -5.500000 20.500000 1.000000
v -1.499999 20.500000 1.000000
v -1.499999 8.000000 1.000000
v -5.500000 8.000000 1.000000
v 1.500000 20.500000 1.000000
v 1.500000 17.000000 1.000000
v 1.500000 11.500000 1.000000
v 1.500000 8.000000 1.000000
v 1.500000 7.500000 1.000000
v 1.500000 2.500000 1.000000
v 5.500001 20.500000 1.000000
v 5.500001 17.000000 1.000000
v 5.500001 11.500000 1.000000
v 5.500001 8.000000 1.000000
v 5.500001 7.500000 1.000000
v 5.500001 2.500000 1.000000
vt 0.375000 0.000000
vt 0.625000 0.000000
vt 0.375000 0.250000
vt 0.625000 0.250000
vt 0.375000 0.500000
vt 0.625000 0.500000
vt 0.375000 1.000000
vt 0.625000 1.000000
vt 0.875000 0.250000
vt 0.125000 0.250000
vt 0.375000 0.125000
vt 0.250000 0.375000
vt 0.750000 0.375000
vt 0.625000 0.125000
vt 0.500000 0.125000
vt 0.500000 0.000000
vt 0.500000 1.000000
vt 0.500000 0.625000
vt 0.500000 0.500000
vt 0.500000 0.250000
vt 0.437500 0.125000
vt 0.437500 0.000000
vt 0.437500 1.000000
vt 0.437500 0.625000
vt 0.437500 0.500000
vt 0.437500 0.250000
vt 0.625000 0.062500
vt 0.500000 0.062500
vt 0.437500 0.062500
vt 0.375000 0.062500
vt 0.125000 0.062500
vt 0.375000 0.687500
vt 0.437500 0.687500
vt 0.500000 0.687500
vt 0.625000 0.687500
vt 0.875000 0.062500
vt 0.437500 0.093750
vt 0.500000 0.093750
vt 0.625000 0.093750
vt 0.625000 0.656250
vt 0.875000 0.093750
vt 0.500000 0.656250
vt 0.437500 0.656250
vt 0.250000 0.375000
vt 0.375000 0.093750
vt 0.437500 0.031250
vt 0.500000 0.031250
vt 0.625000 0.031250
vt 0.750000 0.375000
vt 0.500000 0.718750
vt 0.437500 0.718750
vt 0.250000 0.375000
vt 0.375000 0.031250
vt 0.375000 0.109375
vt 0.250000 0.375000
vt 0.437500 0.640625
vt 0.500000 0.640625
vt 0.750000 0.375000
vt 0.625000 0.109375
vt 0.500000 0.109375
vt 0.437500 0.109375
vt 0.437500 0.101562
vt 0.500000 0.101562
vt 0.625000 0.101562
vt 0.625000 0.648438
vt 0.875000 0.101562
vt 0.500000 0.648438
vt 0.437500 0.648438
vt 0.250000 0.375000
vt 0.375000 0.101562
vt 0.468750 0.093750
vt 0.468750 0.101562
vt 0.468750 0.109375
vt 0.468750 0.125000
vt 0.468750 0.250000
vt 0.468750 0.500000
vt 0.468750 0.625000
vt 0.468750 0.640625
vt 0.468750 0.648438
vt 0.468750 0.656250
vt 0.468750 0.687500
vt 0.468750 0.000000
vt 0.468750 1.000000
vt 0.468750 0.031250
vt 0.468750 0.062500
vt 0.484375 0.093750
vt 0.484375 0.101562
vt 0.484375 0.109375
vt 0.484375 0.125000
vt 0.484375 0.250000
vt 0.484375 0.500000
vt 0.484375 0.625000
vt 0.484375 0.640625
vt 0.484375 0.648438
vt 0.484375 0.656250
vt 0.484375 0.687500
vt 0.484375 0.000000
vt 0.484375 1.000000
vt 0.484375 0.031250
vt 0.484375 0.062500
vt 0.625000 0.375000
vt 0.750000 0.250000
vt 0.500000 0.375000
vt 0.484375 0.375000
vt 0.468750 0.375000
vt 0.437500 0.375000
vt 0.250000 0.250000
vt 0.375000 0.375000
vt 0.250000 0.125000
vt 0.250000 0.109375
vt 0.250000 0.101562
vt 0.250000 0.093750
vt 0.250000 0.062500
vt 0.250000 0.031250
vt 0.312500 0.437500
vt 0.437500 0.875000
vt 0.468750 0.875000
vt 0.484375 0.875000
vt 0.500000 0.875000
vt 0.687500 0.437500
vt 0.750000 0.031250
vt 0.750000 0.062500
vt 0.750000 0.093750
vt 0.750000 0.101562
vt 0.750000 0.109375
vt 0.750000 0.125000
vt 0.437500 0.687500
vt 0.468750 0.687500
vt 0.468750 0.718750
vt 0.437500 0.718750
vt 0.437500 0.648438
vt 0.437500 0.640625
vt 0.437500 0.625000
vt 0.468750 0.625000
vt 0.468750 0.656250
vt 0.437500 0.656250
vt 0.484375 0.625000
vt 0.484375 0.656250
vt 0.484375 0.687500
vt 0.484375 0.718750
vt 0.500000 0.625000
vt 0.500000 0.640625
vt 0.500000 0.648438
vt 0.500000 0.656250
vt 0.500000 0.687500
vt 0.500000 0.718750
vn 0.000000 0.000000 1.000000
vn 0.000000 0.000000 1.000000
vn 0.000000 0.000000 1.000000
vn 0.000000 0.000000 1.000000
vn 0.000000 1.000000 0.000000
vn 0.000000 1.000000 0.000000
vn 0.000000 1.000000 0.000000
vn 0.000000 1.000000 0.000000
vn 0.000000 0.000000 -1.000000
vn 0.000000 0.000000 -1.000000
vn 0.000000 0.000000 -1.000000
vn 0.000000 0.000000 -1.000000
vn 0.000000 -1.000000 0.000000
vn 0.000000 -1.000000 0.000000
vn 0.000000 -1.000000 0.000000
vn 0.000000 -1.000000 0.000000
vn 1.000000 0.000000 0.000000
vn 1.000000 0.000000 0.000000
vn 1.000000 0.000000 0.000000
vn 1.000000 0.000000 0.000000
vn -1.000000 0.000000 0.000000
vn -1.000000 0.000000 0.000000
vn -1.000000 0.000000 0.000000
vn -1.000000 0.000000 0.000000
vn -1.000000 0.000000 0.000000
vn -1.000000 0.000000 0.000000
vn -1.000000 0.000000 0.000000
vn -1.000000 0.000000 0.000000
vn 0.000000 0.000000 -1.000000
vn 0.000000 0.000000 -1.000000
vn 0.000000 0.000000 -1.000000
vn 0.000000 0.000000 -1.000000
vn 1.000000 0.000000 0.000000
vn 1.000000 0.000000 0.000000
vn 1.000000 0.000000 0.000000
vn 1.000000 0.000000 0.000000
vn 0.000000 0.000000 1.000000
vn 0.000000 0.000000 1.000000
vn 0.000000 0.000000 1.000000
vn 0.000000 0.000000 1.000000
vn 0.000000 0.000000 1.000000
vn 0.000000 0.000000 1.000000
vn 0.000000 0.000000 1.000000
vn 0.000000 0.000000 1.000000
vn 0.000000 -1.000000 0.000000
vn 0.000000 -1.000000 0.000000
vn 0.000000 -1.000000 0.000000
vn 0.000000 -1.000000 0.000000
vn 0.000000 0.000000 -1.000000
vn 0.000000 0.000000 -1.000000
vn 0.000000 0.000000 -1.000000
vn 0.000000 0.000000 -1.000000
vn 0.000000 0.000000 -1.000000
vn 0.000000 0.000000 -1.000000
vn 0.000000 0.000000 -1.000000
vn 0.000000 0.000000 -1.000000
vn 0.000000 1.000000 0.000000
vn 0.000000 1.000000 0.000000
vn 0.000000 1.000000 0.000000
vn 0.000000 1.000000 0.000000
vn 0.000000 0.000000 1.000000
vn 0.000000 0.000000 1.000000
vn 0.000000 0.000000 1.000000
vn 0.000000 0.000000 1.000000
vn 0.000000 0.000000 1.000000
vn 0.000000 0.000000 1.000000
vn 0.000000 -1.000000 0.000000
vn 0.000000 -1.000000 0.000000
vn 0.000000 0.000000 -1.000000
vn 0.000000 0.000000 -1.000000
vn 0.000000 0.000000 -1.000000
vn 0.000000 0.000000 -1.000000
vn 0.000000 0.000000 -1.000000
vn 0.000000 0.000000 -1.000000
vn 0.000000 1.000000 0.000000
vn 0.000000 1.000000 0.000000
vn 0.000000 0.000000 1.000000
vn 0.000000 0.000000 1.000000
vn 0.000000 0.000000 1.000000
vn 0.000000 0.000000 1.000000
vn 0.000000 0.000000 1.000000
vn 0.000000 0.000000 1.000000
vn 0.000000 0.000000 1.000000
vn 0.000000 0.000000 1.000000
vn 0.000000 0.000000 1.000000
vn 0.000000 0.000000 1.000000
vn 0.000000 0.000000 1.000000
vn 0.000000 0.000000 1.000000
vn -1.000000 0.000000 0.000000
vn -1.000000 0.000000 0.000000
vn -1.000000 0.000000 0.000000
vn -1.000000 0.000000 0.000000
vn 0.000000 0.000000 -1.000000
vn 0.000000 0.000000 -1.000000
vn 0.000000 0.000000 -1.000000
vn 0.000000 0.000000 -1.000000
vn 0.000000 0.000000 -1.000000
vn 0.000000 0.000000 -1.000000
vn 0.000000 0.000000 -1.000000
vn 0.000000 0.000000 -1.000000
vn 0.000000 0.000000 -1.000000
vn 0.000000 0.000000 -1.000000
vn 0.000000 0.000000 -1.000000
vn 0.000000 0.000000 -1.000000
vn 1.000000 0.000000 0.000000
vn 1.000000 0.000000 0.000000
vn 1.000000 0.000000 0.000000
vn 1.000000 0.000000 0.000000
vn 0.000000 0.000000 1.000000
vn 0.000000 0.000000 1.000000
vn 0.000000 0.000000 1.000000
vn 0.000000 0.000000 1.000000
vn 1.000000 0.000000 0.000000
vn 1.000000 0.000000 0.000000
vn 0.000000 0.000000 -1.000000
vn 0.000000 0.000000 -1.000000
vn 0.000000 0.000000 -1.000000
vn 0.000000 0.000000 -1.000000
vn 0.000000 0.000000 -1.000000
vn 0.000000 0.000000 -1.000000
vn -1.000000 0.000000 0.000000
vn -1.000000 0.000000 0.000000
vn 0.000000 0.000000 1.000000
vn 0.000000 0.000000 1.000000
vn 0.000000 0.000000 1.000000
vn 0.000000 0.000000 1.000000
vn 0.000000 0.000000 1.000000
vn 1.000000 0.000000 0.000000
vn 1.000000 0.000000 0.000000
vn -1.000000 0.000000 0.000000
vn -1.000000 0.000000 0.000000
vn 0.000000 0.000000 1.000000
vn 0.000000 0.000000 -1.000000
vn 0.000000 0.000000 -1.000000
vn 0.000000 0.000000 -1.000000
vn 0.000000 0.000000 -1.000000
vn 0.000000 0.000000 1.000000
vn 0.000000 0.000000 1.000000
vn 0.000000 0.000000 1.000000
vn 0.000000 0.000000 1.000000
vn 0.000000 0.000000 1.000000
vn 0.000000 1.000000 0.000000
vn 0.000000 1.000000 0.000000
vn 0.000000 0.000000 -1.000000
vn 0.000000 0.000000 -1.000000
vn 0.000000 0.000000 -1.000000
vn 0.000000 0.000000 -1.000000
vn 0.000000 0.000000 -1.000000
vn 0.000000 0.000000 -1.000000
vn 0.000000 0.000000 -1.000000
vn 0.000000 0.000000 -1.000000
vn 0.000000 -1.000000 0.000000
vn 0.000000 -1.000000 0.000000
vn 0.000000 0.000000 1.000000
vn 0.000000 0.000000 1.000000
vn 0.000000 0.000000 1.000000
vn 0.000000 0.000000 -1.000000
vn 0.000000 0.000000 -1.000000
vn 0.000000 0.000000 -1.000000
vn 0.000000 0.000000 -1.000000
vn 0.000000 0.000000 -1.000000
vn 0.000000 0.000000 -1.000000
vn 0.000000 0.000000 -1.000000
vn 0.000000 0.000000 -1.000000
vn 0.000000 1.000000 0.000000
vn 0.000000 1.000000 0.000000
vn 0.000000 1.000000 0.000000
vn 0.000000 1.000000 0.000000
vn 0.000000 1.000000 0.000000
vn 0.000000 1.000000 0.000000
vn -1.000000 0.000000 0.000000
vn -1.000000 0.000000 0.000000
vn -1.000000 0.000000 0.000000
vn -1.000000 0.000000 0.000000
vn -1.000000 0.000000 0.000000
vn -1.000000 0.000000 0.000000
vn -1.000000 0.000000 0.000000
vn 1.000000 0.000000 0.000000
vn 1.000000 0.000000 0.000000
vn 1.000000 0.000000 0.000000
vn 1.000000 0.000000 0.000000
vn 1.000000 0.000000 0.000000
vn 1.000000 0.000000 0.000000
vn 1.000000 0.000000 0.000000
vn 0.000000 -1.000000 0.000000
vn 0.000000 -1.000000 0.000000
vn 0.000000 -1.000000 0.000000
vn 0.000000 -1.000000 0.000000
vn 1.000000 0.000000 0.000000
vn 1.000000 0.000000 0.000000
vn 1.000000 0.000000 0.000000
vn 1.000000 0.000000 0.000000
vn 1.000000 0.000000 0.000000
vn 1.000000 0.000000 0.000000
vn 1.000000 0.000000 0.000000
vn 1.000000 0.000000 0.000000
vn 0.000000 -1.000000 0.000000
vn 0.000000 -1.000000 0.000000
vn 0.000000 -1.000000 0.000000
vn 0.000000 -1.000000 0.000000
vn 0.000000 1.000000 0.000000
vn 0.000000 1.000000 0.000000
vn 0.000000 1.000000 0.000000
vn 0.000000 1.000000 0.000000
vn 0.000000 -1.000000 0.000000
vn 0.000000 -1.000000 0.000000
vn 0.000000 -1.000000 0.000000
vn 0.000000 -1.000000 0.000000
vn 1.000000 0.000000 0.000000
vn 1.000000 0.000000 0.000000
vn 1.000000 0.000000 0.000000
vn 1.000000 0.000000 0.000000
vn -1.000000 0.000000 0.000000
vn -1.000000 0.000000 0.000000
vn -1.000000 0.000000 0.000000
vn -1.000000 0.000000 0.000000
vn 0.000000 -1.000000 0.000000
vn 0.000000 -1.000000 0.000000
vn 0.000000 -1.000000 0.000000
vn 0.000000 -1.000000 0.000000
vn -1.000000 0.000000 0.000000
vn -1.000000 0.000000 0.000000
vn -1.000000 0.000000 0.000000
vn -1.000000 0.000000 0.000000
vn -1.000000 0.000000 0.000000
vn -1.000000 0.000000 0.000000
vn -1.000000 0.000000 0.000000
vn -1.000000 0.000000 0.000000
vn 0.000000 1.000000 0.000000
vn 0.000000 1.000000 0.000000
vn 0.000000 1.000000 0.000000
vn 0.000000 1.000000 0.000000
vn 0.000000 -1.000000 0.000000
vn 0.000000 -1.000000 0.000000
vn 0.000000 -1.000000 0.000000
vn 0.000000 -1.000000 0.000000
vn -1.000000 0.000000 0.000000
vn -1.000000 0.000000 0.000000
vn -1.000000 0.000000 0.000000
vn -1.000000 0.000000 0.000000
vn 0.000000 -0.000000 -1.000000
vn 0.000000 -0.000000 -1.000000
vn 0.000000 -0.000000 -1.000000
vn 0.000000 -0.000000 -1.000000
vn 0.000000 -0.000000 -1.000000
vn 0.000000 -0.000000 -1.000000
vn 0.000000 -0.000000 -1.000000
vn 0.000000 -0.000000 -1.000000
vn 0.000000 -0.000000 -1.000000
vn 0.000000 -0.000000 -1.000000
vn 0.000000 -0.000000 -1.000000
vn 0.000000 -0.000000 -1.000000
vn 0.000000 -0.000000 -1.000000
vn 0.000000 -0.000000 -1.000000
vn 0.000000 -0.000000 -1.000000
vn 0.000000 -0.000000 -1.000000
vn 0.000000 -0.000000 -1.000000
vn 0.000000 -0.000000 -1.000000
vn 0.000000 -0.000000 -1.000000
vn 0.000000 -0.000000 -1.000000
vn 0.000000 -1.000000 0.000000
vn 0.000000 -1.000000 0.000000
vn 0.000000 -1.000000 0.000000
vn 0.000000 -1.000000 0.000000
vn 0.000000 -1.000000 0.000000
vn 0.000000 -1.000000 0.000000
vn 0.000000 -1.000000 0.000000
vn 0.000000 -1.000000 0.000000
vn 0.000000 1.000000 0.000000
vn 0.000000 1.000000 0.000000
vn 0.000000 1.000000 0.000000
vn 0.000000 1.000000 0.000000
vn -0.000000 0.000000 -1.000000
vn -0.000000 0.000000 -1.000000
vn -0.000000 0.000000 -1.000000
vn -0.000000 0.000000 -1.000000
vn 0.000000 -1.000000 0.000000
vn 0.000000 -1.000000 0.000000
vn 0.000000 -1.000000 0.000000
vn 0.000000 -1.000000 0.000000
vn 0.000000 1.000000 0.000000
vn 0.000000 1.000000 0.000000
vn 0.000000 1.000000 0.000000
vn 0.000000 1.000000 0.000000
vn -0.000000 0.000000 -1.000000
vn -0.000000 0.000000 -1.000000
vn -0.000000 0.000000 -1.000000
vn -0.000000 0.000000 -1.000000
vn 0.000000 -1.000000 0.000000
vn 0.000000 -1.000000 0.000000
vn 0.000000 -1.000000 0.000000
vn 0.000000 -1.000000 0.000000
vn 0.000000 -1.000000 0.000000
vn 0.000000 -1.000000 0.000000
vn 0.000000 -1.000000 0.000000
vn 0.000000 -1.000000 0.000000
vn 0.000000 0.000000 -1.000000
vn 0.000000 0.000000 -1.000000
vn 0.000000 0.000000 -1.000000
vn 0.000000 0.000000 -1.000000
vn 0.000000 1.000000 0.000000
vn 0.000000 1.000000 0.000000
vn 0.000000 1.000000 0.000000
vn 0.000000 1.000000 0.000000
s 1
g right_building_lp
usemtl initialShadingGroup
f 38/47/1 39/48/2 21/27/3 22/28/4
s 2
f 15/20/5 4/4/6 85/101/7 86/103/8
s 3
f 27/34/9 28/35/10 40/49/11 41/50/12
s 4
f 101/119/13 102/120/14 2/8/15 12/17/16
s 5
f 39/48/17 103/121/18 104/122/19 21/27/20
s 6
f 96/114/21 44/53/22 24/30/23 95/113/24
f 91/109/25 7/11/26 3/3/27 90/107/28
s 8
f 14/19/29 6/6/30 9/13/31 13/18/32
s 5
f 10/14/33 108/126/34 85/102/35 4/4/36
s 1
f 15/20/37 11/15/38 10/14/39 4/4/40
f 37/46/41 71/84/42 72/85/43 23/29/44
s 4
f 98/116/45 99/117/46 70/83/47 17/23/48
s 13
f 109/127/49 110/128/50 111/129/51 112/130/52
s 8
f 19/25/53 66/76/54 67/77/55 18/24/56
s 2
f 20/26/57 65/75/58 88/105/59 89/106/60
s 1
f 20/26/61 16/21/62 64/74/63 65/75/64
f 44/53/65 37/46/41 23/29/44 24/30/66
s 4
f 97/115/67 98/116/45 17/23/48 1/7/68
s 17
f 25/32/69 26/33/70 42/51/71 43/52/72
s 8
f 5/5/73 19/25/53 18/24/56 8/12/74
s 2
f 3/3/75 20/26/57 89/106/60 90/108/76
s 1
f 7/11/77 16/21/62 20/26/61 3/3/78
f 54/63/79 55/64/80 50/59/81 51/60/82
f 53/62/83 62/72/84 63/73/85 52/61/86
f 60/70/87 53/62/83 52/61/86 45/54/88
s 6
f 93/111/89 60/70/90 45/54/91 92/110/92
s off
f 46/55/93 47/56/94 58/68/95 59/69/96
s 13
f 113/132/97 114/78/98 115/79/99 116/131/100
s 3
f 48/57/101 49/58/102 56/65/103 57/67/104
s 5
f 55/64/105 106/124/106 107/125/107 50/59/108
s 1
f 23/29/44 72/85/43 61/71/109 29/37/110
f 22/28/4 21/27/3 31/39/111 30/38/112
s 5
f 21/27/20 104/122/19 105/123/113 31/39/114
s 3
f 33/42/115 32/40/116 28/35/10 27/34/9
s 17
f 34/43/117 68/80/118 69/81/119 26/33/70
f 35/44/120 34/43/117 26/33/70 25/32/69
s 6
f 95/113/24 24/30/23 36/45/121 94/112/122
s 1
f 24/30/66 23/29/44 29/37/110 36/45/123
f 17/22/124 70/82/125 71/84/42 37/46/41
f 12/16/126 2/2/127 39/48/2 38/47/1
s 5
f 2/2/128 102/120/129 103/121/18 39/48/17
s 6
f 97/115/130 1/1/131 44/53/22 96/114/21
s 1
f 1/1/132 17/22/124 37/46/41 44/53/65
s 6
f 92/110/92 45/54/91 7/11/26 91/109/25
s 13
f 117/133/133 118/134/134 114/78/98 113/132/97
s 5
f 50/59/108 107/125/107 108/126/34 10/14/33
s 1
f 51/60/82 50/59/81 10/14/39 11/15/38
f 52/61/86 63/73/85 64/74/63 16/21/62
f 45/54/88 52/61/86 16/21/62 7/11/77
f 29/37/110 61/71/109 62/72/84 53/62/83
f 30/38/112 31/39/111 55/64/80 54/63/79
s 5
f 31/39/114 105/123/113 106/124/106 55/64/105
s 3
f 57/67/104 56/65/103 32/40/116 33/42/115
s 13
f 116/131/100 115/79/99 119/135/135 120/136/136
s 6
f 94/112/122 36/45/121 60/70/90 93/111/89
s 1
f 36/45/123 29/37/110 53/62/83 60/70/87
f 61/71/109 73/86/137 74/87/138 62/72/84
f 63/73/85 62/72/84 74/87/138 75/88/139
f 64/74/63 63/73/85 75/88/139 76/89/140
f 65/75/64 64/74/63 76/89/140 77/90/141
s 2
f 88/105/59 65/75/58 77/90/142 87/104/143
s 8
f 67/77/55 66/76/54 78/91/144 79/92/145
s 13
f 114/78/98 118/134/134 121/137/146 122/93/147
f 115/79/99 114/78/98 122/93/147 123/94/148
f 119/135/135 115/79/99 123/94/148 124/138/149
f 110/128/50 119/135/135 124/138/149 125/139/150
f 111/129/51 110/128/50 125/139/150 126/140/151
s 4
f 70/83/47 99/117/46 100/118/152 82/98/153
s 1
f 71/84/42 70/82/125 82/97/154 83/99/155
f 72/85/43 71/84/42 83/99/155 84/100/156
f 61/71/109 72/85/43 84/100/156 73/86/137
f 73/86/137 30/38/112 54/63/79 74/87/138
f 75/88/139 74/87/138 54/63/79 51/60/82
f 76/89/140 75/88/139 51/60/82 11/15/38
f 77/90/141 76/89/140 11/15/38 15/20/37
s 2
f 87/104/143 77/90/142 15/20/5 86/103/8
s 8
f 79/92/145 78/91/144 14/19/29 13/18/32
s 13
f 122/93/147 121/137/146 127/141/157 128/142/158
f 123/94/148 122/93/147 128/142/158 129/143/159
f 124/138/149 123/94/148 129/143/159 130/144/160
s 3
f 81/96/161 80/95/162 33/42/115 27/34/9
s 13
f 126/140/151 125/139/150 131/145/163 132/146/164
s 4
f 82/98/153 100/118/152 101/119/13 12/17/16
s 1
f 83/99/155 82/97/154 12/16/126 38/47/1
f 84/100/156 83/99/155 38/47/1 22/28/4
f 73/86/137 84/100/156 22/28/4 30/38/112
s 2
f 86/103/8 85/101/7 6/6/165 14/19/166
f 78/91/167 87/104/143 86/103/8 14/19/166
f 66/76/168 88/105/59 87/104/143 78/91/167
f 89/106/60 88/105/59 66/76/168 19/25/169
f 90/108/76 89/106/60 19/25/169 5/5/170
s 6
f 8/12/171 91/109/25 90/107/28 5/10/172
f 59/69/173 93/111/89 92/110/92 46/55/174
f 25/31/175 95/113/24 94/112/122 35/44/176
f 43/52/177 96/114/21 95/113/24 25/31/175
s 5
f 104/122/19 103/121/18 40/49/178 28/36/179
f 105/123/113 104/122/19 28/36/179 32/41/180
f 106/124/106 105/123/113 32/41/180 56/66/181
f 107/125/107 106/124/106 56/66/181 49/58/182
f 85/102/35 108/126/34 9/13/183 6/9/184
s off
f 26/33/185 69/81/186 110/128/187 109/127/188
f 42/51/189 26/33/190 109/127/191 112/130/192
f 58/68/193 47/56/194 113/132/195 116/131/196
f 18/24/197 67/77/198 118/134/199 117/133/200
f 68/80/201 34/43/202 120/136/203 119/135/204
f 67/77/205 79/92/206 121/137/207 118/134/208
f 69/81/209 68/80/210 119/135/211 110/128/212
f 80/95/213 81/96/214 125/139/215 124/138/216
f 79/92/217 13/18/218 127/141/219 121/137/220
f 48/57/221 57/67/222 129/143/223 128/142/224
f 57/67/225 33/42/226 130/144/227 129/143/228
f 33/42/229 80/95/230 124/138/231 130/144/232
f 81/96/233 27/34/234 131/145/235 125/139/236
f 27/34/237 41/50/238 132/146/239 131/145/240
f 101/119/241 100/118/242 126/140/243 132/146/244
f 100/118/245 99/117/246 111/129/247 126/140/248
f 99/117/249 98/116/250 112/130/251 111/129/252
f 103/121/253 102/120/254 101/119/255 132/146/256
f 97/115/257 96/114/258 112/130/259 98/116/260
f 96/114/261 43/52/262 42/51/263 112/130/264
f 40/49/265 103/121/266 132/146/267 41/50/268
f 35/44/269 94/112/270 120/136/271 34/43/272
f 94/112/273 93/111/274 116/131/275 120/136/276
f 93/111/277 59/69/278 58/68/279 116/131/280
f 46/55/281 92/110/282 113/132/283 47/56/284
f 92/110/285 91/109/286 117/133/287 113/132/288
f 91/109/289 8/12/290 18/24/291 117/133/292
f 9/13/293 108/126/294 127/141/295 13/18/296
f 108/126/297 107/125/298 128/142/299 127/141/300
f 107/125/301 49/58/302 48/57/303 128/142/304
