# This file uses centimeters as units for non-parametric coordinates.

mtllib apartment_03_platform.mtl
g default
v 24.500122 20.000000 -1.500000
v -3.458252 20.000000 -1.500000
v 24.500122 19.002930 -1.500000
v -3.500000 19.000000 -1.500000
v 24.500000 -20.000000 -1.500000
v -24.500000 -20.000000 -1.500000
v -24.500000 20.000000 -1.500000
v 24.500000 20.000000 6.500000
v -24.500000 20.000000 6.500000
v 24.500000 -20.000000 6.500000
v -24.500000 -20.000000 6.500000
v -9.517822 20.000000 -1.500000
v -9.500000 19.000000 -1.500000
v -24.500000 19.002930 -1.500000
v 24.500122 19.002930 -6.500061
v -3.500000 19.000000 -6.500061
v -3.458252 20.000000 -6.500061
v 24.500122 20.000000 -6.500000
v -9.517822 20.000000 -6.500061
v -9.500000 19.000000 -6.500061
v -24.500000 19.002930 -6.500061
v -24.500000 20.000000 -6.500061
v 24.500122 20.000000 -6.000000
v -3.458252 20.000000 -6.000031
v -9.517822 20.000000 -6.000031
v -24.500000 20.000000 -6.000031
v 24.020935 20.000000 -1.500000
v -24.008911 20.000000 -1.500000
v 24.031326 20.000000 5.999985
v -24.013367 20.000000 5.999985
v 24.031326 20.400000 5.999985
v 24.700001 20.400000 7.000003
v -24.700001 20.400000 7.000000
v -24.013367 20.400000 5.999985
v 24.700123 20.400000 -1.499997
v 24.020935 20.400000 -1.500000
v -24.008911 20.400000 -1.500000
v -24.700001 20.400000 -1.500000
v 24.700123 20.400000 -6.000000
v -3.658252 20.400000 -6.000031
v 24.700123 20.400000 -6.699999
v -3.658252 20.400000 -6.700061
v -9.317822 20.400000 -6.000031
v -24.700001 20.400000 -6.000031
v -9.317822 20.400000 -6.700061
v -24.700001 20.400000 -6.700061
v 24.700001 20.000000 7.000003
v 24.700123 20.000000 -1.499997
v -24.700001 20.000000 7.000000
v -24.700001 20.000000 -1.500000
v -3.658252 20.000000 -6.700061
v 24.700123 20.000000 -6.699999
v -3.658252 20.000000 -6.000031
v 24.700123 20.000000 -6.000000
v -9.317822 20.000000 -6.700061
v -9.317822 20.000000 -6.000031
v -24.700001 20.000000 -6.700061
v -24.700001 20.000000 -6.000031
vt 1.000000 0.000000
vt 0.442292 0.689853
vt 0.015208 0.689853
vt 0.015208 0.766118
vt 0.442292 0.766118
vt 0.992373 0.697611
vt 0.559825 0.697611
vt 0.589320 0.675982
vt 0.849313 0.000001
vt 0.861337 0.676032
vt 0.013728 0.980171
vt 0.753587 0.797684
vt 0.982380 0.797684
vt 0.248351 0.980171
vt 0.000000 0.808258
vt 0.173444 0.863571
vt 0.021955 0.909943
vt 0.000000 0.925018
vt 0.679052 0.885603
vt 0.771478 0.885603
vt 0.679052 0.816965
vt 0.008794 0.854559
vt 0.000000 0.873861
vt 0.546097 0.697611
vt 0.000000 0.980171
vt 0.186618 0.938191
vt 1.000000 0.816964
vt 0.195400 0.909845
vt 1.000000 0.706763
vt 0.556775 0.717440
vt 0.556774 0.706763
vt 0.989322 0.706763
vt 0.255978 0.989323
vt 0.010678 1.000000
vt 0.010678 0.989322
vt 0.245301 0.989323
vt 0.861337 0.000000
vt 0.184422 0.891425
vt 0.008782 0.878252
vt 0.008782 0.863341
vt 0.009890 0.787550
vt 0.021950 0.901161
vt 0.186617 0.909845
vt 0.186618 0.925018
vt 1.000000 0.000000
vt 1.000000 0.693314
vt 0.195400 0.925018
vt 0.000000 0.933800
vt 0.556774 0.700662
vt 0.989322 0.700662
vt 1.000000 0.700661
vt 0.546097 0.700662
vt 0.000000 0.983221
vt 0.010678 0.983221
vt 0.245301 0.983221
vt 0.255978 0.983221
vt -0.000000 0.878252
vt 0.195399 0.887034
vt 0.010978 0.938191
vt 0.861337 0.693315
vt 0.861337 0.693314
vt 1.000000 0.693314
vt 0.849313 0.676033
vt 0.982380 0.721419
vt 0.753587 0.721419
vt 0.589629 0.693315
vt 0.484599 0.693315
vt 0.485322 0.675982
vt 0.000000 0.676032
vt 1.000000 0.676032
vt 0.861337 0.000000
vt 0.000003 0.000000
vt 0.259756 1.000000
vt 0.992578 0.999999
vt 0.259914 0.885603
vt 0.992509 0.885603
vt 0.997589 0.721419
vt 1.000000 0.885603
vt 0.771478 0.816964
vt 0.738331 0.721419
vt 0.997589 0.790057
vt 0.252605 0.885603
vt 0.000000 0.689853
vt 0.252605 0.816965
vt 0.457558 0.689853
vt 0.457558 0.758491
vt 0.997589 0.797684
vt 0.255978 0.980171
vt 1.000000 0.697611
vt 0.457558 0.766118
vt 0.000000 0.758491
vt 0.015207 0.781326
vt 0.553724 0.697611
vt 0.986272 0.697611
vt 0.242250 0.980171
vt 0.753861 0.812937
vt 0.245301 1.000000
vt 0.000000 0.989322
vt 0.989322 0.717440
vt 0.546097 0.706763
vt 0.000000 0.766117
vt 0.441653 0.781371
vt 0.982383 0.812892
vt 0.738331 0.797684
vt 0.007627 0.980171
vt 0.738331 0.790057
vt 0.186618 0.933800
vt 0.195399 0.920627
vt 0.186613 0.901063
vt 0.730661 0.808258
vt 0.720505 0.793467
vt 0.720505 0.787551
vt 0.008782 0.887034
vt 0.008782 0.891425
vt 0.000000 0.863340
vt 0.009890 0.793467
vt 0.195399 0.878252
vt 0.173456 0.854789
vn 0.000000 0.000000 -1.000000
vn 0.000000 0.000000 -1.000000
vn 0.000000 0.000000 -1.000000
vn 0.000001 0.000031 -1.000000
vn 0.000001 0.000031 -1.000000
vn 0.000001 0.000031 -1.000000
vn 0.000001 0.000031 -1.000000
vn 0.000000 0.000000 -1.000000
vn 0.000000 0.000000 -1.000000
vn 0.000000 0.000000 -1.000000
vn 0.000000 0.000000 -1.000000
vn 0.000000 0.000000 -1.000000
vn 0.000000 0.000000 -1.000000
vn 0.000000 0.000000 -1.000000
vn 0.000000 1.000000 -0.000001
vn 0.000000 1.000000 -0.000001
vn 0.000000 1.000000 -0.000001
vn 0.000000 1.000000 -0.000001
vn 0.000000 0.000000 -1.000000
vn 0.000000 0.000000 -1.000000
vn 0.000000 0.000000 -1.000000
vn 0.000000 0.000000 -1.000000
vn 0.000000 0.000000 -1.000000
vn 0.000000 0.000000 -1.000000
vn 0.000000 0.000000 -1.000000
vn 0.000000 0.000000 -1.000000
vn 0.000105 -1.000000 0.000000
vn 0.000105 -1.000000 0.000000
vn 0.000105 -1.000000 0.000000
vn 0.000105 -1.000000 0.000000
vn -0.999130 0.041712 0.000000
vn -0.999130 0.041712 0.000000
vn -0.999130 0.041712 0.000000
vn -0.999130 0.041712 0.000000
vn 0.000000 1.000000 0.000000
vn 0.000000 1.000000 0.000000
vn 0.000000 1.000000 0.000000
vn 1.000000 0.000000 0.000000
vn 1.000000 0.000000 0.000000
vn 1.000000 0.000000 0.000000
vn 1.000000 0.000000 0.000000
vn 0.999841 0.017819 0.000000
vn 0.999841 0.017819 0.000000
vn 0.999841 0.017819 0.000000
vn 0.999841 0.017819 0.000000
vn -0.000195 -1.000000 0.000000
vn -0.000195 -1.000000 0.000000
vn -0.000195 -1.000000 0.000000
vn -0.000195 -1.000000 0.000000
vn -1.000000 0.000000 0.000000
vn -1.000000 0.000000 0.000000
vn -1.000000 0.000000 0.000000
vn -1.000000 0.000000 0.000000
vn 0.000000 1.000000 0.000000
vn 0.000000 1.000000 0.000000
vn 0.000000 1.000000 0.000000
vn 0.000000 1.000000 0.000000
vn 0.000000 1.000000 0.000000
vn 0.000000 1.000000 0.000000
vn 0.000000 1.000000 0.000000
vn -0.999130 0.041712 0.000000
vn -0.999130 0.041712 0.000000
vn -0.999130 0.041712 0.000000
vn 1.000000 0.000000 0.000000
vn 1.000000 0.000000 0.000000
vn 1.000000 0.000000 0.000000
vn 0.999841 0.017818 0.000000
vn 0.999841 0.017818 0.000000
vn 0.999841 0.017818 0.000000
vn 0.000000 1.000000 0.000000
vn 0.000000 1.000000 0.000000
vn 0.000000 1.000000 0.000000
vn 0.000000 1.000000 0.000000
vn -1.000000 0.000000 0.000000
vn -1.000000 0.000000 0.000000
vn -1.000000 0.000000 0.000000
vn 0.000000 1.000000 0.000000
vn 0.000000 1.000000 0.000000
vn 0.000000 1.000000 0.000000
vn 0.000000 1.000000 0.000000
vn 0.000000 1.000000 0.000000
vn 0.000000 1.000000 0.000000
vn 0.000000 1.000000 0.000000
vn 0.000000 1.000000 0.000000
vn 1.000000 -0.000003 0.000000
vn 1.000000 -0.000003 0.000000
vn 1.000000 -0.000003 0.000000
vn 1.000000 0.000000 0.000015
vn 1.000000 0.000000 0.000015
vn 1.000000 0.000000 0.000015
vn 1.000000 0.000000 0.000015
vn 0.000000 1.000000 0.000000
vn 0.000000 1.000000 0.000000
vn 0.000000 1.000000 0.000000
vn 0.000000 1.000000 0.000000
vn 0.000000 1.000000 0.000000
vn 0.000000 1.000000 0.000000
vn 0.000000 1.000000 0.000000
vn 0.000000 1.000000 0.000000
vn 0.000000 1.000000 0.000000
vn 0.000000 1.000000 0.000000
vn 0.000000 1.000000 0.000000
vn 0.000000 1.000000 0.000000
vn 0.000000 1.000000 0.000000
vn 0.000000 1.000000 0.000000
vn 0.000000 1.000000 0.000000
vn 0.000000 1.000000 0.000000
vn 0.000000 1.000000 0.000000
vn 0.000000 1.000000 0.000000
vn -1.000000 0.000000 0.000000
vn -1.000000 0.000000 0.000000
vn -1.000000 0.000000 0.000000
vn -1.000000 0.000000 0.000000
vn -1.000000 0.000000 0.000000
vn -1.000000 0.000000 0.000000
vn -1.000000 0.000000 0.000000
vn 0.000000 0.000000 -1.000000
vn 0.000000 0.000000 -1.000000
vn 0.000000 0.000000 -1.000000
vn 0.000000 0.000000 -1.000000
vn -0.999999 0.000000 0.001385
vn -0.999999 0.000000 0.001385
vn -0.999999 0.000000 0.001385
vn -0.999999 0.000000 0.001385
vn 1.000000 0.000000 0.000594
vn 1.000000 0.000000 0.000594
vn 1.000000 0.000000 0.000594
vn 1.000000 0.000000 0.000594
vn 0.000000 0.000000 -1.000000
vn 0.000000 0.000000 -1.000000
vn 0.000000 0.000000 -1.000000
vn 0.000000 0.000000 -1.000000
vn -1.000000 0.000000 0.000000
vn -1.000000 0.000000 0.000000
vn -1.000000 0.000000 0.000000
vn -1.000000 0.000000 0.000000
vn 0.000002 0.000000 -1.000000
vn 0.000002 0.000000 -1.000000
vn 0.000002 0.000000 -1.000000
vn 0.000002 0.000000 -1.000000
vn -1.000000 0.000000 0.000000
vn -1.000000 0.000000 0.000000
vn -1.000000 0.000000 0.000000
vn -1.000000 0.000000 0.000000
vn 1.000000 0.000000 0.000000
vn 1.000000 0.000000 0.000000
vn 1.000000 0.000000 0.000000
vn 1.000000 0.000000 0.000000
vn 1.000000 0.000000 0.000000
vn 1.000000 0.000000 0.000000
vn 1.000000 0.000000 0.000000
vn 1.000000 0.000000 0.000000
vn 0.000000 0.000000 -1.000000
vn 0.000000 0.000000 -1.000000
vn 0.000000 0.000000 -1.000000
vn 0.000000 0.000000 -1.000000
vn -1.000000 0.000000 0.000000
vn -1.000000 0.000000 0.000000
vn -1.000000 0.000000 0.000000
vn -1.000000 0.000000 0.000000
vn 0.000000 -1.000000 0.000000
vn 0.000000 -1.000000 0.000000
vn 0.000000 -1.000000 0.000000
vn 0.000000 -1.000000 0.000000
vn 0.000005 0.000000 -1.000000
vn 0.000005 0.000000 -1.000000
vn 0.000005 0.000000 -1.000000
vn 0.000000 -1.000000 0.000000
vn 0.000000 -1.000000 0.000000
vn 0.000000 -1.000000 0.000000
vn 0.000000 -1.000000 0.000000
vn 0.000000 -1.000000 0.000003
vn 0.000000 -1.000000 0.000003
vn 0.000000 -1.000000 0.000003
vn 0.000000 -1.000000 0.000003
vn 0.000000 -1.000000 0.000000
vn 0.000000 -1.000000 0.000000
vn 0.000000 -1.000000 0.000000
vn 0.000000 -1.000000 0.000000
vn 0.000000 -1.000000 0.000000
vn 0.000000 -1.000000 0.000000
vn 0.000000 -1.000000 0.000000
vn 0.000000 -1.000000 0.000000
vn 0.000000 -1.000000 0.000000
vn 0.000000 -1.000000 0.000000
vn 0.000000 -1.000000 0.000000
vn 0.000000 -1.000000 0.000000
vn 0.000000 -1.000000 -0.000001
vn 0.000000 -1.000000 -0.000001
vn 0.000000 -1.000000 -0.000001
vn 0.000000 -1.000000 -0.000001
vn 0.000000 -1.000000 0.000000
vn 0.000000 -1.000000 0.000000
vn 0.000000 -1.000000 0.000000
vn 0.000000 -1.000000 0.000000
vn 0.000004 0.000005 -1.000000
vn 0.000004 0.000005 -1.000000
vn 0.000004 0.000005 -1.000000
vn 0.000004 0.000005 -1.000000
vn 1.000000 0.000000 0.000014
vn 1.000000 0.000000 0.000014
vn 1.000000 0.000000 0.000014
vn 1.000000 0.000000 0.000014
vn 0.000000 0.000000 -1.000000
s off
g apartment_03_platform:Apartment03_platform_low
usemtl apartment_03_platform:initialShadingGroup
f 5/72/1 4/68/2 3/69/3
f 15/4/4 16/5/5 17/102/6 18/92/7
f 13/8/8 6/9/9 14/63/10
f 19/96/11 20/12/12 21/13/13 22/103/14
f 32/15/15 31/116/16 34/111/17 33/110/18
f 2/67/19 4/68/20 13/8/21 12/66/22
f 4/68/23 5/72/24 6/9/25 13/8/26
f 3/3/27 4/2/28 16/5/29 15/4/30
f 4/2/31 2/85/32 24/86/33 16/5/34
f 2/19/35 27/75/36 24/21/37
f 1/83/38 3/3/39 15/4/40 23/91/41
f 12/80/42 13/65/43 20/12/44 25/106/45
f 13/65/46 14/64/47 21/13/48 20/12/49
f 14/64/50 7/77/51 26/81/52 21/13/53
f 28/76/54 12/20/55 25/79/56
f 40/99/57 39/30/58 41/31/59 42/32/60
f 16/5/61 24/86/62 17/90/63
f 23/91/64 15/4/65 18/101/66
f 25/106/67 20/12/68 19/104/69
f 44/97/70 43/34/71 45/35/72 46/36/73
f 21/13/74 26/81/75 22/87/76
f 24/21/77 27/75/78 1/82/79 23/84/80
f 7/78/81 28/76/82 25/79/83 26/27/84
f 10/37/85 5/1/86 3/70/87
f 8/61/88 10/37/89 3/70/90 1/62/91
f 35/39/92 36/40/93 31/16/94 32/117/95
f 27/75/96 2/19/97 29/73/98
f 30/74/99 29/73/100 2/19/101 12/20/102
f 30/74/103 12/20/104 28/76/105
f 33/18/106 34/17/107 37/43/108 38/44/109
f 14/10/110 11/45/111 9/46/112 7/60/113
f 6/71/114 11/45/115 14/10/116
f 29/41/117 30/112/118 34/111/119 31/116/120
f 27/22/121 29/118/122 31/16/123 36/40/124
f 30/42/125 28/109/126 37/43/127 34/17/128
s 1
f 50/47/129 37/43/130 28/28/131 7/108/132
s off
f 50/107/133 49/48/134 33/18/135 38/44/136
f 52/49/137 51/50/138 42/32/139 41/31/140
f 51/50/141 53/51/142 40/29/143 42/32/144
f 54/52/145 52/49/146 41/31/147 39/100/148
f 56/53/149 55/54/150 45/35/151 43/98/152
f 55/54/153 57/55/154 46/36/155 45/35/156
f 57/55/157 58/56/158 44/33/159 46/36/160
f 8/38/161 1/114/162 48/113/163 47/58/164
f 35/39/165 48/57/166 36/40/167
f 7/26/168 9/59/169 49/48/170 50/107/171
f 18/7/172 17/94/173 51/50/174 52/49/175
f 17/6/176 24/89/177 53/51/178 51/50/179
f 23/24/180 18/93/181 52/49/182 54/52/183
f 25/25/184 19/105/185 55/54/186 56/53/187
f 19/11/188 22/95/189 57/55/190 55/54/191
f 22/14/192 26/88/193 58/56/194 57/55/195
f 36/40/196 48/57/197 1/23/198 27/115/199
f 35/39/200 32/117/201 47/58/202 48/113/203
s 1
f 38/44/204 37/43/130 50/47/129
