# This file uses centimeters as units for non-parametric coordinates.

mtllib rooftop_window.mtl
g default
v -3.000000 0.000000 1.500000
v 3.000000 0.000000 1.500000
v -3.000000 0.000000 -1.500000
v 3.000000 0.000000 -1.500000
v 0.000000 0.000000 -1.500000
v 0.000000 0.000000 1.500000
v 3.000000 0.000000 0.000000
v -3.000000 0.000000 0.000000
v -1.301770 1.254351 0.060733
v -1.118271 1.313921 0.056168
v -1.118453 1.314394 -0.055548
v -1.301770 1.254351 -0.060733
v 0.056788 1.313449 0.056788
v 0.056788 1.313449 -0.056788
v -0.056788 1.313449 -0.056788
v -0.056788 1.313449 0.056788
v -2.944494 0.248127 -1.376441
v -2.851476 0.251692 -1.450686
v -3.000000 0.149896 -1.500000
v 1.301770 1.254351 -0.060733
v 1.118271 1.313921 -0.056168
v 1.118453 1.314394 0.055548
v 1.301770 1.254351 0.060733
v 2.848165 0.252530 -1.449586
v 2.947137 0.246509 -1.382324
v 3.000000 0.149896 -1.500000
v -2.848165 0.252530 1.449586
v -2.947137 0.246509 1.382324
v -3.000000 0.149896 1.500000
v -0.057155 0.252778 -1.449261
v 0.057522 0.253026 -1.448935
v 0.000000 0.151991 -1.500000
v 2.944494 0.248127 1.376441
v 2.851476 0.251692 1.450686
v 3.000000 0.149896 1.500000
v 2.943617 0.248665 0.057686
v 3.000000 0.150597 0.000000
v 2.943617 0.248665 -0.057686
v -0.057522 0.253026 1.448935
v 0.000000 0.151991 1.500000
v 0.057522 0.253026 1.448935
v -2.943617 0.248665 -0.057686
v -3.000000 0.150597 0.000000
v -2.943617 0.248665 0.057686
v -1.321086 1.301162 0.066550
v -1.321169 1.301122 -0.066353
v -2.983445 0.281232 -0.057685
v -2.983536 0.281153 0.057676
v -1.128617 1.363707 0.062072
v -2.981136 0.288111 1.391232
v -2.844982 0.296541 1.483519
v -1.128902 1.364188 -0.061186
v -0.056776 1.364748 0.067946
v -0.056776 1.364781 -0.067876
v -2.851134 0.294849 -1.485136
v -2.977794 0.290678 -1.382848
v 0.056776 1.364781 0.067876
v -0.057524 0.282578 1.490725
v 0.057522 0.282544 1.490758
v 0.056776 1.364748 -0.067946
v 1.128902 1.364188 0.061186
v 1.128617 1.363707 -0.062072
v 0.057551 0.282568 -1.490734
v -0.057128 0.282276 -1.491103
v -3.029814 0.190837 -1.531921
v -3.043465 0.175311 -0.000009
v 0.000027 0.174311 -1.544742
v 1.321086 1.301162 -0.066550
v 1.321169 1.301122 0.066353
v 2.983445 0.281232 0.057685
v 2.983536 0.281153 -0.057676
v 2.981136 0.288111 -1.391232
v 2.844982 0.296541 -1.483519
v 2.851158 0.294849 1.485116
v 2.977794 0.290678 1.382848
v 3.029470 0.190692 -1.532501
v 3.043465 0.175311 0.000009
v -3.029470 0.190692 1.532501
v -0.000002 0.174335 1.544730
v 3.029807 0.190844 1.531906
vt 0.447683 0.315960
vt 0.436930 0.332014
vt 0.435258 0.167035
vt 0.446665 0.173247
vt 0.432521 0.328576
vt 0.432597 0.167034
vt 0.446657 0.160823
vt 0.416378 0.167034
vt 0.416378 0.328576
vt 0.432521 0.005492
vt 0.436915 0.001992
vt 0.447406 0.017206
vt 0.556506 0.159867
vt 0.556502 0.174180
vt 0.416378 0.005492
vt 0.583336 0.001992
vt 0.593827 0.017206
vt 0.593078 0.160823
vt 0.581679 0.167035
vt 0.593086 0.173247
vt 0.579017 0.167034
vt 0.578942 0.005492
vt 0.594103 0.315960
vt 0.583352 0.332012
vt 0.702927 0.159867
vt 0.702923 0.174180
vt 0.562799 0.167034
vt 0.562799 0.005492
vt 0.578942 0.328576
vt 0.562799 0.328576
vt 0.370673 0.998007
vt 0.256471 0.848080
vt 0.259654 0.843580
vt 0.376198 0.996805
vt 0.001969 0.966867
vt 0.116171 0.816940
vt 0.121699 0.818134
vt 0.005148 0.971371
vt 0.243519 0.998008
vt 0.129317 0.848081
vt 0.132498 0.843580
vt 0.249043 0.996807
vt 0.116333 0.808488
vt 0.230562 0.658527
vt 0.236090 0.659721
vt 0.119510 0.812995
vt 0.160327 0.449832
vt 0.159844 0.470560
vt 0.017183 0.649339
vt 0.007244 0.634676
vt 0.173601 0.449863
vt 0.174157 0.470569
vt 0.001969 0.654544
vt 0.159694 0.334401
vt 0.174321 0.334401
vt 0.326953 0.635338
vt 0.315937 0.648979
vt 0.159701 0.322172
vt 0.174329 0.322172
vt 0.331991 0.654581
vt 0.160422 0.206709
vt 0.173696 0.206740
vt 0.327556 0.322088
vt 0.327595 0.334439
vt 0.006468 0.334481
vt 0.006465 0.322091
vt 0.174178 0.186012
vt 0.159865 0.186003
vt 0.316840 0.007234
vt 0.326779 0.021897
vt 0.007072 0.021231
vt 0.018086 0.007594
vt 0.332054 0.002028
vt 0.002033 0.001992
vt 0.350698 0.654545
vt 0.339497 0.635302
vt 0.340851 0.334402
vt 0.352478 0.328247
vt 0.340820 0.322052
vt 0.354882 0.328250
vt 0.355108 0.651334
vt 0.339315 0.021860
vt 0.350714 0.001992
vt 0.371251 0.328250
vt 0.371251 0.651334
vt 0.355108 0.005166
vt 0.371251 0.005166
vt 0.409782 0.634676
vt 0.398383 0.654544
vt 0.396621 0.328286
vt 0.408279 0.334481
vt 0.393990 0.651370
vt 0.394215 0.328286
vt 0.408275 0.322091
vt 0.377846 0.651370
vt 0.377846 0.328286
vt 0.393990 0.005202
vt 0.398399 0.001992
vt 0.409600 0.021231
vt 0.377846 0.005202
vt 0.366601 0.658491
vt 0.474908 0.835309
vt 0.471400 0.839598
vt 0.361564 0.660580
vt 0.600386 0.512776
vt 0.708693 0.335958
vt 0.713734 0.338038
vt 0.603884 0.517075
vt 0.981082 0.421229
vt 0.981031 0.306913
vt 0.986556 0.306912
vt 0.986444 0.422344
vt 0.866776 0.607530
vt 0.866829 0.306992
vt 0.871516 0.607187
vt 0.714748 0.001993
vt 0.714646 0.116329
vt 0.709283 0.117454
vt 0.709220 0.001992
vt 0.828976 0.002033
vt 0.829093 0.302966
vt 0.824446 0.302930
vt 0.950720 0.302965
vt 0.950822 0.188629
vt 0.956184 0.187504
vt 0.956248 0.302966
vt 0.836518 0.302886
vt 0.836374 0.001992
vt 0.841022 0.002026
vt 0.746405 0.493212
vt 0.746455 0.607529
vt 0.740931 0.607530
vt 0.741043 0.492098
vt 0.860711 0.306912
vt 0.860657 0.607450
vt 0.855971 0.307255
vt 0.350462 0.839634
vt 0.242155 0.662816
vt 0.245662 0.658527
vt 0.355499 0.837545
vt 0.594321 0.340259
vt 0.486014 0.517077
vt 0.480972 0.514997
vt 0.590822 0.335960
vt 0.649553 0.611476
vt 0.757860 0.611804
vt 0.649495 0.753499
vt 0.762897 0.612409
vt 0.654078 0.754189
vt 0.879235 0.611804
vt 0.770870 0.753499
vt 0.770928 0.611476
vt 0.884272 0.612409
vt 0.775453 0.754188
vt 0.406745 0.844503
vt 0.515285 0.986831
vt 0.406977 0.987160
vt 0.411226 0.843544
vt 0.520326 0.986205
vt 0.636660 0.664310
vt 0.528352 0.664639
vt 0.528120 0.521982
vt 0.532601 0.521023
vt 0.641701 0.663684
vt 0.892303 0.754188
vt 0.892245 0.612165
vt 0.896828 0.611475
vt 0.895811 0.754188
vt 0.383626 0.986201
vt 0.383858 0.843545
vt 0.387357 0.843544
vt 0.388107 0.987161
vt 0.395186 0.986201
vt 0.395418 0.843545
vt 0.398917 0.843544
vt 0.399666 0.987161
vt 0.903863 0.754188
vt 0.903805 0.612165
vt 0.908387 0.611475
vt 0.907370 0.754188
vt 0.724300 0.306912
vt 0.724229 0.607450
vt 0.720575 0.607107
vt 0.719799 0.306912
vt 0.979404 0.001992
vt 0.979593 0.302886
vt 0.975089 0.302886
vt 0.975696 0.002026
vt 0.963683 0.302929
vt 0.963529 0.001995
vt 0.968035 0.001992
vt 0.967393 0.302892
vt 0.730364 0.607450
vt 0.730434 0.306912
vt 0.734089 0.307255
vt 0.734866 0.607446
vn -0.362963 0.903812 0.226675
vn -0.366535 0.903504 -0.222110
vn -0.716180 0.697915 -0.000783
vn -0.717858 0.696190 0.000720
vn -0.158202 0.975332 0.153944
vn -0.286502 0.896384 0.338250
vn -0.284796 0.897949 0.335529
vn -0.160818 0.975774 -0.148333
vn -0.000685 0.999998 0.001786
vn -0.000685 0.999998 0.001786
vn -0.291197 0.898329 -0.328953
vn -0.292496 0.897329 -0.330524
vn 0.000103 0.795932 0.605386
vn 0.000103 0.795932 0.605386
vn -0.000490 0.560156 0.828387
vn 0.000547 0.558113 0.829765
vn 0.000685 0.999998 -0.001786
vn 0.000685 0.999998 -0.001786
vn 0.160809 0.975777 0.148322
vn 0.158202 0.975332 -0.153944
vn -0.000112 0.795931 -0.605387
vn -0.000112 0.795931 -0.605387
vn 0.000500 0.560217 -0.828346
vn -0.000561 0.557475 -0.830194
vn -0.877913 0.478817 -0.001746
vn -0.877913 0.478817 -0.001746
vn -0.879975 0.475021 -0.000198
vn -0.000774 0.428496 -0.903543
vn -0.000774 0.428496 -0.903543
vn 0.000006 0.431298 -0.902209
vn 0.362963 0.903812 -0.226675
vn 0.366541 0.903503 0.222102
vn 0.716180 0.697915 0.000783
vn 0.717858 0.696190 -0.000720
vn 0.286502 0.896384 -0.338250
vn 0.284796 0.897949 -0.335529
vn 0.291197 0.898329 0.328953
vn 0.292496 0.897329 0.330524
vn 0.000750 0.433838 -0.900991
vn 0.000750 0.433838 -0.900991
vn 0.882372 0.470550 -0.001380
vn 0.882372 0.470551 -0.001380
vn 0.879978 0.475015 0.000198
vn -0.000749 0.433852 0.900984
vn -0.000749 0.433852 0.900984
vn -0.000009 0.431690 0.902022
vn -0.882372 0.470550 0.001380
vn -0.882372 0.470551 0.001380
vn 0.877919 0.478805 0.001747
vn 0.877919 0.478805 0.001747
vn 0.000740 0.429264 0.903179
vn 0.000740 0.429264 0.903179
vn 0.000000 0.000000 1.000000
vn -0.000000 0.000000 1.000000
vn -0.000000 0.000000 1.000000
vn 0.000000 0.000000 1.000000
vn 0.000000 0.000000 -1.000000
vn 0.000000 0.000000 -1.000000
vn 0.000000 0.000000 -1.000000
vn 0.000000 0.000000 -1.000000
vn 1.000000 0.000000 0.000000
vn 1.000000 0.000000 0.000000
vn 1.000000 0.000000 0.000000
vn 1.000000 0.000000 0.000000
vn -1.000000 0.000000 0.000000
vn -1.000000 0.000000 0.000000
vn -1.000000 0.000000 0.000000
vn -1.000000 0.000000 0.000000
vn -0.522333 0.852742 0.000000
vn -0.522333 0.852742 0.000000
vn -0.522333 0.852742 0.000000
vn -0.000000 0.795503 -0.605949
vn -0.000000 0.795503 -0.605949
vn -0.000000 0.795503 -0.605949
vn -0.000000 0.795503 -0.605949
vn 0.522333 0.852742 0.000000
vn 0.522333 0.852741 0.000000
vn 0.522333 0.852742 0.000000
vn -0.000000 0.795503 0.605949
vn -0.000000 0.795503 0.605949
vn -0.000000 0.795503 0.605949
vn -0.000000 0.795503 0.605949
vn 0.000000 0.795503 -0.605949
vn 0.000000 0.795503 -0.605949
vn 0.000000 0.795503 -0.605949
vn 0.000000 0.795503 -0.605949
vn 0.000000 0.000000 -1.000000
vn 0.000000 0.000000 -1.000000
vn -0.000000 0.000000 1.000000
vn -0.000000 0.000000 1.000000
vn 0.000000 0.795503 0.605949
vn 0.000000 0.795503 0.605949
vn 0.000000 0.795503 0.605949
vn 0.000000 0.795503 0.605949
vn 1.000000 0.000000 0.000000
vn 1.000000 0.000000 0.000000
vn -1.000000 0.000000 0.000000
vn -1.000000 0.000000 0.000000
vn -0.522333 0.852742 -0.000000
vn -0.522333 0.852742 -0.000000
vn -0.522333 0.852742 -0.000000
vn 0.522333 0.852742 0.000000
vn 0.522333 0.852742 0.000000
vn 0.522333 0.852742 0.000000
vn -0.369960 0.826444 -0.424405
vn 0.353318 0.822266 -0.446145
vn -0.353318 0.822266 0.446145
vn 0.369968 0.826434 0.424418
vn 0.027313 -0.050328 -0.998359
vn 0.027313 -0.050328 -0.998359
vn 0.027313 -0.050328 -0.998359
vn 0.027313 -0.050328 -0.998359
vn 0.028266 -0.051981 0.998248
vn 0.028266 -0.051981 0.998248
vn 0.028266 -0.051981 0.998248
vn 0.028266 -0.051981 0.998248
vn -0.540488 -0.189399 -0.819756
vn -0.540488 -0.189399 -0.819756
vn -0.540488 -0.189399 -0.819756
vn -0.540488 -0.189399 -0.819756
vn 0.697678 -0.234261 0.677028
vn 0.697678 -0.234261 0.677028
vn 0.697678 -0.234261 0.677028
vn 0.697678 -0.234261 0.677028
vn -0.002957 -0.166725 0.985999
vn -0.002957 -0.166725 0.985999
vn -0.002957 -0.166725 0.985999
vn -0.002957 -0.166725 0.985999
vn -0.003694 -0.163554 -0.986527
vn -0.003694 -0.163554 -0.986528
vn -0.003694 -0.163554 -0.986527
vn -0.003694 -0.163554 -0.986528
vn 0.694567 -0.219904 -0.684995
vn 0.694567 -0.219904 -0.684995
vn 0.694567 -0.219904 -0.684995
vn 0.694567 -0.219904 -0.684995
vn -0.531809 -0.203048 0.822162
vn -0.531809 -0.203048 0.822162
vn -0.531809 -0.203048 0.822162
vn -0.531809 -0.203048 0.822162
vn -1.000000 0.000317 -0.000285
vn -1.000000 0.000317 -0.000285
vn -1.000000 0.000317 -0.000285
vn -1.000000 0.000317 -0.000285
vn 1.000000 0.000332 -0.000273
vn 1.000000 0.000332 -0.000273
vn 1.000000 0.000332 -0.000273
vn 1.000000 0.000332 -0.000273
vn 0.003694 -0.163554 0.986527
vn 0.003694 -0.163554 0.986528
vn 0.003694 -0.163554 0.986528
vn 0.003694 -0.163554 0.986528
vn 0.002957 -0.166725 -0.985999
vn 0.002957 -0.166725 -0.985999
vn 0.002957 -0.166725 -0.985999
vn 0.002957 -0.166725 -0.985999
vn 1.000000 0.000096 0.000463
vn 1.000000 0.000096 0.000463
vn 1.000000 0.000096 0.000463
vn 1.000000 0.000096 0.000463
vn -1.000000 0.000435 -0.000076
vn -1.000000 0.000435 -0.000076
vn -1.000000 0.000435 -0.000076
vn -1.000000 0.000435 -0.000076
vn -0.665678 -0.746210 -0.006646
vn -0.666133 -0.745833 0.000009
vn -0.666133 -0.745833 0.000007
vn -0.665678 -0.746210 -0.006646
vn 0.716370 0.697711 0.003644
vn 0.716370 0.697711 0.003644
vn 0.716370 0.697711 0.003644
vn 0.716370 0.697711 0.003644
vn 0.002049 0.724154 0.689636
vn 0.002049 0.724154 0.689636
vn 0.002049 0.724154 0.689636
vn 0.002049 0.724154 0.689636
vn -0.000035 -0.773434 -0.633878
vn -0.003199 -0.771910 -0.635724
vn -0.003199 -0.771910 -0.635724
vn -0.000033 -0.773435 -0.633876
vn -0.027313 -0.050328 0.998359
vn -0.027313 -0.050328 0.998359
vn -0.027313 -0.050328 0.998359
vn -0.027313 -0.050328 0.998359
vn -0.028266 -0.051981 -0.998248
vn -0.028266 -0.051981 -0.998248
vn -0.028266 -0.051981 -0.998248
vn -0.028266 -0.051981 -0.998248
vn 0.540488 -0.189399 0.819756
vn 0.540488 -0.189399 0.819756
vn 0.540488 -0.189399 0.819756
vn 0.540488 -0.189399 0.819756
vn -0.697678 -0.234261 -0.677028
vn -0.697678 -0.234261 -0.677028
vn -0.697678 -0.234261 -0.677028
vn -0.697678 -0.234261 -0.677028
vn -0.694511 -0.219637 0.685138
vn -0.694511 -0.219637 0.685138
vn -0.694511 -0.219637 0.685138
vn -0.694511 -0.219637 0.685138
vn 0.531809 -0.203048 -0.822162
vn 0.531809 -0.203048 -0.822162
vn 0.531809 -0.203048 -0.822162
vn 0.531809 -0.203048 -0.822162
vn 0.003119 -0.774941 -0.632026
vn 0.003119 -0.774941 -0.632026
vn -0.002553 0.717291 0.696769
vn -0.002553 0.717291 0.696769
vn -0.002553 0.717291 0.696769
vn -0.002553 0.717291 0.696769
vn -0.707867 0.706345 0.000978
vn -0.707867 0.706345 0.000978
vn -0.707867 0.706345 0.000978
vn -0.707867 0.706345 0.000978
vn 0.666172 -0.745798 -0.000007
vn 0.666559 -0.745423 -0.006685
vn 0.666559 -0.745423 -0.006685
vn 0.666172 -0.745798 -0.000005
vn -0.003115 -0.774776 0.632228
vn 0.000036 -0.773220 0.634138
vn 0.000035 -0.773220 0.634138
vn -0.003115 -0.774776 0.632228
vn 0.002550 0.717199 -0.696864
vn 0.002550 0.717199 -0.696864
vn 0.002550 0.717199 -0.696864
vn 0.002550 0.717199 -0.696864
vn 0.707867 0.706345 -0.000978
vn 0.707867 0.706345 -0.000978
vn 0.707867 0.706345 -0.000978
vn 0.707867 0.706345 -0.000978
vn -0.666559 -0.745423 0.006685
vn -0.666559 -0.745423 0.006685
vn 0.665757 -0.746139 0.006649
vn 0.665756 -0.746139 0.006649
vn -0.716370 0.697711 -0.003644
vn -0.716370 0.697711 -0.003644
vn -0.716370 0.697711 -0.003644
vn -0.716370 0.697711 -0.003644
vn -0.001902 0.723882 -0.689921
vn -0.001902 0.723882 -0.689921
vn -0.001902 0.723882 -0.689921
vn -0.001902 0.723882 -0.689921
vn 0.003197 -0.771645 0.636045
vn 0.003197 -0.771645 0.636045
s 1
g rooftop_window_lp
usemtl initialShadingGroup
f 45/13/1 46/14/2 47/4/3 48/7/4
f 49/47/5 45/48/1 50/49/6 51/50/7
f 52/51/8 49/47/5 53/54/9 54/55/10
f 46/52/2 52/51/8 55/56/11 56/57/12
s 2
f 57/58/13 53/54/14 58/65/15 59/66/16
s 1
f 60/59/17 57/58/18 61/61/19 62/62/20
s 3
f 54/55/21 60/59/22 63/63/23 64/64/24
s 1
f 56/1/25 65/2/26 66/3/27 47/4/3
s 3
f 65/75/28 55/76/29 64/77/24 67/78/30
s 1
f 68/25/31 69/26/32 70/20/33 71/18/34
f 62/62/20 68/67/31 72/69/35 73/70/36
f 69/68/32 61/61/19 74/71/37 75/72/38
s 3
f 73/82/39 76/83/40 67/78/30 63/79/23
s 1
f 76/16/41 72/17/42 71/18/34 77/19/43
s 2
f 51/88/44 78/89/45 79/90/46 58/91/15
s 1
f 78/11/47 50/12/48 48/7/4 66/3/27
f 75/23/49 80/24/50 77/19/43 70/20/33
s 2
f 80/98/51 74/99/52 59/94/16 79/90/46
s 4
f 1/95/53 6/96/54 40/93/55 29/92/56
s 5
f 19/81/57 32/80/58 5/84/59 3/85/60
s 6
f 37/21/61 7/27/62 4/28/63 26/22/64
s 7
f 8/8/65 43/6/66 19/5/67 3/9/68
s off
f 42/145/69 12/146/70 17/147/71
f 11/117/72 15/116/73 30/120/74 18/121/75
f 23/150/76 33/151/77 36/152/78
f 27/113/79 39/114/80 16/110/81 10/109/82
f 14/131/83 21/130/84 24/134/85 31/135/86
s 5
f 5/84/59 32/80/58 26/86/87 4/87/88
s 4
f 40/93/55 6/96/54 2/100/89 35/97/90
s off
f 13/123/91 41/127/92 34/128/93 22/124/94
s 6
f 35/29/95 2/30/96 7/27/62 37/21/61
s 7
f 1/15/97 29/10/98 43/6/66 8/8/65
s off
f 28/155/99 9/156/100 44/157/101
f 20/160/102 38/161/103 25/162/104
s 1
f 45/48/1 49/47/5 52/51/8 46/52/2
f 57/58/18 60/59/17 54/55/10 53/54/9
f 56/57/12 55/56/11 65/60/105
f 68/67/31 62/62/20 61/61/19 69/68/32
f 73/70/36 72/69/35 76/73/106
f 51/50/7 50/49/6 78/53/107
s 3
f 64/77/24 63/79/23 67/78/30
s 1
f 75/72/38 74/71/37 80/74/108
f 70/20/33 77/19/43 71/18/34
s 2
f 58/91/15 79/90/46 59/94/16
s 1
f 47/4/3 66/3/27 48/7/4
s off
f 12/101/109 42/102/110 47/103/111 46/104/112
f 44/105/113 9/106/114 45/107/115 48/108/116
f 9/156/117 28/155/118 50/158/119 45/159/120
f 27/113/121 10/109/122 49/112/123 51/115/124
f 10/109/125 16/110/126 53/111/127 49/112/128
f 15/116/129 11/117/130 52/118/131 54/119/132
f 11/117/133 18/121/134 55/122/135 52/118/136
f 17/147/137 12/146/138 46/148/139 56/149/140
f 16/31/141 39/32/142 58/33/143 53/34/144
f 41/35/145 13/36/146 57/37/147 59/38/148
f 13/123/149 22/124/150 61/125/151 57/126/152
f 21/130/153 14/131/154 60/132/155 62/133/156
f 14/39/157 31/40/158 63/41/159 60/42/160
f 30/43/161 15/44/162 54/45/163 64/46/164
s 8
f 19/5/165 43/6/166 66/3/167 65/2/168
s off
f 42/165/169 17/166/170 56/167/171 47/168/172
f 18/189/173 30/190/174 64/191/175 55/192/176
s 9
f 32/80/177 19/81/178 65/75/179 67/78/180
s off
f 23/137/181 36/138/182 70/139/183 69/140/184
f 38/141/185 20/142/186 68/143/187 71/144/188
f 20/160/189 25/162/190 72/163/191 68/164/192
f 24/134/193 21/130/194 62/133/195 73/136/196
f 22/124/197 34/128/198 74/129/199 61/125/200
f 33/151/201 23/150/202 69/153/203 75/154/204
s 9
f 26/86/205 32/80/177 67/78/180 76/83/206
s off
f 31/193/207 24/194/208 73/195/209 63/196/210
f 25/169/211 38/170/212 71/171/213 72/172/214
s 10
f 37/21/215 26/22/216 76/16/217 77/19/218
s 11
f 29/92/219 40/93/220 79/90/221 78/89/222
s off
f 39/181/223 27/182/224 51/183/225 58/184/226
f 28/173/227 44/174/228 48/175/229 50/176/230
s 8
f 43/6/166 29/10/231 78/11/232 66/3/167
s 10
f 35/29/233 37/21/215 77/19/218 80/24/234
s off
f 36/177/235 33/178/236 75/179/237 70/180/238
f 34/185/239 41/186/240 59/187/241 74/188/242
s 11
f 40/93/220 35/97/243 80/98/244 79/90/221
