# This file uses centimeters as units for non-parametric coordinates.

mtllib short_platform.mtl
g default
v -3.000000 -0.750000 1.500000
v 3.000000 -0.750000 1.500000
v -3.000000 -0.750000 -1.500000
v 3.000000 -0.750000 -1.500000
v 3.000000 0.375000 1.500000
v -3.000000 0.375000 1.500000
v -3.000000 0.375000 -1.500000
v 3.000000 0.375000 -1.500000
v -2.800000 -0.375000 1.300000
v -2.800000 0.375000 1.300000
v 2.800000 -0.375000 1.300000
v 2.800000 0.375000 1.300000
v -2.800000 -0.375000 -1.300000
v -2.800000 0.375000 -1.300000
v 2.800000 -0.375000 -1.300000
v 2.800000 0.375000 -1.300000
v -2.962503 0.750000 1.462504
v -3.000000 0.712504 1.500000
v 2.962503 0.750000 1.462504
v 3.000000 0.712504 1.500000
v -2.962503 0.750000 -1.462504
v -3.000000 0.712504 -1.500000
v 2.962503 0.750000 -1.462504
v 3.000000 0.712504 -1.500000
v 3.000000 -0.412496 1.500000
v 2.962503 -0.375000 1.462504
v -3.000000 -0.412496 1.500000
v -2.962503 -0.375000 1.462504
v -3.000000 -0.412496 -1.500000
v -2.962503 -0.375000 -1.462504
v 3.000000 -0.412496 -1.500000
v 2.962503 -0.375000 -1.462504
vt 0.738986 0.785191
vt 0.977972 0.665698
vt 0.738986 0.665698
vt 0.007966 0.331366
vt 0.261014 0.345428
vt 0.908451 0.532077
vt 0.000000 0.219840
vt 0.000000 0.323400
vt 0.970006 0.807219
vt 0.029994 0.353394
vt 0.253048 0.353394
vt 0.716958 0.777225
vt 0.283042 0.323400
vt 0.023521 0.213367
vt 0.022028 0.331985
vt 0.023521 0.329873
vt 0.725543 0.785191
vt 0.993527 0.783697
vt 0.977972 0.798634
vt 0.740480 0.800746
vt 0.991415 0.665698
vt 0.259520 0.213367
vt 0.259520 0.329873
vt 0.738986 0.798634
vt 0.977972 0.785191
vt 0.738986 0.652255
vt 0.991415 0.785191
vt 0.275076 0.211873
vt 0.021409 0.211873
vt 0.022028 0.197812
vt 0.021409 0.331366
vt 0.261633 0.331366
vt 0.022028 0.345428
vt 0.275076 0.331366
vt 0.261014 0.211255
vt 0.723431 0.667192
vt 1.000000 0.673664
vt 0.976478 0.650143
vt 0.976479 0.800746
vt 0.422537 0.505669
vt 0.723431 0.783697
vt 0.746952 0.643670
vt 0.422537 0.532077
vt 1.000000 0.532077
vt 0.253048 0.189846
vt 0.619719 0.532077
vt 0.711268 0.532077
vt 0.022028 0.211255
vt 0.007966 0.211873
vt 0.261014 0.197812
vt 0.261633 0.211873
vt 0.261014 0.331985
vt 0.283042 0.219840
vt 0.029994 0.189845
vt 1.000000 0.505669
vt 0.746952 0.807219
vt 0.908451 0.505669
vt 0.619719 0.505669
vt 1.000000 0.777225
vt 0.711268 0.505669
vt 0.740479 0.650143
vt 0.716958 0.673664
vt 0.725543 0.665698
vt 0.970006 0.643670
vt 0.993527 0.667191
vt 0.977972 0.652255
vn 0.000000 -1.000000 0.000000
vn 0.000000 -1.000000 0.000000
vn 0.000000 -1.000000 0.000000
vn 0.000000 -1.000000 0.000000
vn 0.000000 0.000000 1.000000
vn 0.000000 0.000000 1.000000
vn 0.000000 0.000000 1.000000
vn 0.000000 0.000000 1.000000
vn -1.000000 0.000000 0.000000
vn -1.000000 0.000000 0.000000
vn -1.000000 0.000000 0.000000
vn -1.000000 0.000000 0.000000
vn 0.000000 0.000000 -1.000000
vn 0.000000 0.000000 -1.000000
vn 0.000000 0.000000 -1.000000
vn 0.000000 0.000000 -1.000000
vn 1.000000 0.000000 0.000000
vn 1.000000 0.000000 0.000000
vn 1.000000 0.000000 0.000000
vn 1.000000 0.000000 0.000000
vn 0.000000 -1.000000 0.000000
vn 0.000000 -1.000000 0.000000
vn 0.000000 -1.000000 0.000000
vn 0.000000 -1.000000 0.000000
vn 0.000000 -1.000000 -0.000000
vn 0.000000 -1.000000 -0.000000
vn 0.000000 -1.000000 -0.000000
vn 0.000000 -1.000000 -0.000000
vn 0.000000 0.707106 0.707108
vn 0.000000 0.707106 0.707108
vn 0.000000 0.707106 0.707108
vn 0.000000 0.707106 0.707108
vn -0.707106 0.707107 0.000000
vn -0.707106 0.707107 0.000000
vn -0.707106 0.707107 0.000000
vn -0.707106 0.707107 0.000000
vn 0.707106 0.707107 0.000000
vn 0.707106 0.707107 0.000000
vn 0.707106 0.707107 0.000000
vn 0.707106 0.707107 0.000000
vn 0.000000 0.707106 -0.707108
vn 0.000000 0.707106 -0.707108
vn 0.000000 0.707106 -0.707108
vn 0.000000 0.707106 -0.707108
vn 0.000000 0.707106 0.707107
vn 0.000000 0.707106 0.707107
vn 0.000000 0.707106 0.707107
vn 0.000000 0.707106 0.707107
vn 0.707107 0.707107 0.000000
vn 0.707106 0.707107 0.000000
vn 0.707106 0.707107 0.000000
vn 0.707107 0.707107 0.000000
vn -0.707106 0.707107 0.000000
vn -0.707107 0.707107 0.000000
vn -0.707107 0.707107 0.000000
vn -0.707106 0.707107 0.000000
vn 0.000000 0.707106 -0.707107
vn 0.000000 0.707106 -0.707107
vn 0.000000 0.707106 -0.707107
vn 0.000000 0.707106 -0.707107
vn 0.000000 0.000000 1.000000
vn 0.000000 0.000000 1.000000
vn 0.000000 0.000000 1.000000
vn 0.000000 0.000000 1.000000
vn 0.000000 1.000000 0.000000
vn 0.000000 1.000000 0.000000
vn 0.000000 1.000000 0.000000
vn 0.000000 1.000000 0.000000
vn 0.000000 0.000000 -1.000000
vn 0.000000 0.000000 -1.000000
vn 0.000000 0.000000 -1.000000
vn 0.000000 0.000000 -1.000000
vn 1.000000 0.000000 0.000000
vn 1.000000 0.000000 0.000000
vn 1.000000 0.000000 0.000000
vn 1.000000 0.000000 0.000000
vn -1.000000 0.000000 0.000000
vn -1.000000 0.000000 0.000000
vn -1.000000 0.000000 0.000000
vn -1.000000 0.000000 0.000000
vn 0.000000 0.000000 1.000000
vn 0.000000 0.000000 1.000000
vn 0.000000 0.000000 1.000000
vn 0.000000 0.000000 1.000000
vn -1.000000 0.000000 0.000000
vn -1.000000 0.000000 0.000000
vn -1.000000 0.000000 0.000000
vn -1.000000 0.000000 0.000000
vn 0.000000 0.000000 -1.000000
vn 0.000000 0.000000 -1.000000
vn 0.000000 0.000000 -1.000000
vn 0.000000 0.000000 -1.000000
vn 1.000000 0.000000 0.000000
vn 1.000000 0.000000 0.000000
vn 1.000000 0.000000 0.000000
vn 1.000000 0.000000 0.000000
vn 0.000000 1.000000 -0.000000
vn 0.000000 1.000000 -0.000000
vn 0.000000 1.000000 -0.000000
vn 0.000000 1.000000 -0.000000
vn 0.000000 1.000000 0.000000
vn 0.000000 1.000000 0.000000
vn 0.000000 1.000000 0.000000
vn 0.000000 1.000000 0.000000
s off
g short_6x1p5_lp
usemtl initialShadingGroup
f 1/2/1 3/25/2 4/1/3 2/3/4
f 10/47/5 9/60/6 11/57/7 12/6/8
f 13/58/9 9/60/10 10/47/11 14/46/12
f 13/58/13 14/46/14 16/43/15 15/40/16
f 12/6/17 11/57/18 15/55/19 16/44/20
s 1
f 6/30/21 10/54/22 12/45/23 5/50/24
f 6/49/21 7/4/25 14/8/26 10/7/22
f 14/10/26 7/33/25 8/5/27 16/11/28
f 8/34/27 5/28/24 12/53/23 16/13/28
s off
f 17/14/29 18/48/30 20/35/31 19/22/32
f 18/29/33 17/14/34 21/16/35 22/31/36
f 19/22/37 20/51/38 24/32/39 23/23/40
f 22/15/41 21/16/42 23/23/43 24/52/44
f 28/38/45 27/66/46 25/26/47 26/61/48
f 26/36/49 25/63/50 31/17/51 32/41/52
f 27/21/53 28/65/54 30/18/55 29/27/56
f 29/19/57 30/39/58 32/20/59 31/24/60
f 27/66/61 1/2/62 2/3/63 25/26/64
f 21/16/65 17/14/66 19/22/67 23/23/68
f 3/25/69 29/19/70 31/24/71 4/1/72
f 2/3/73 4/1/74 31/17/75 25/63/76
f 3/25/77 1/2/78 27/21/79 29/27/80
f 20/35/81 18/48/82 6/30/83 5/50/84
f 7/4/85 6/49/86 18/29/87 22/31/88
f 7/33/89 22/15/90 24/52/91 8/5/92
f 5/28/93 8/34/94 24/32/95 20/51/96
s 2
f 9/64/97 28/38/98 26/61/99 11/42/100
f 30/18/101 28/65/98 9/37/97 13/59/102
f 30/39/101 13/9/102 15/56/103 32/20/104
f 26/36/99 32/41/104 15/12/103 11/62/100
